<svg width="276" height="36" viewBox="0 0 276 36" fill="none" xmlns="http://www.w3.org/2000/svg">
<path d="M19.1053 29.3175L10.2605 33.9725C9.99801 34.1097 9.70272 34.1709 9.4076 34.1494C9.11248 34.1278 8.82914 34.0242 8.58922 33.8503C8.34929 33.6763 8.16223 33.4388 8.04891 33.1642C7.93558 32.8896 7.90047 32.5888 7.94748 32.2954L9.63744 22.4332L2.48259 15.4507C2.26903 15.2433 2.11782 14.9798 2.04622 14.6902C1.97462 14.4007 1.98552 14.0967 2.07766 13.8131C2.16981 13.5294 2.33949 13.2775 2.56734 13.0861C2.79519 12.8947 3.07203 12.7715 3.36626 12.7305L13.2536 11.2907L17.6759 2.3202C17.8082 2.05302 18.0121 1.82822 18.2646 1.67107C18.5171 1.51392 18.8082 1.43066 19.1053 1.43066C19.4023 1.43066 19.6935 1.51392 19.946 1.67107C20.1985 1.82822 20.4024 2.05302 20.5346 2.3202L24.957 11.2907L34.8443 12.7305C35.1377 12.7729 35.4134 12.8969 35.6403 13.0885C35.8671 13.2801 36.0361 13.5316 36.128 13.8147C36.2199 14.0977 36.2312 14.4009 36.1605 14.69C36.0898 14.9792 35.94 15.2427 35.728 15.4507L28.5731 22.4332L30.259 32.2913C30.3096 32.5852 30.2772 32.8876 30.1653 33.1639C30.0534 33.4403 29.8666 33.6796 29.6262 33.8547C29.3857 34.0298 29.1012 34.1336 28.8049 34.1545C28.5086 34.1753 28.2125 34.1122 27.9501 33.9725L19.1053 29.3175Z" fill="black" stroke="black" stroke-width="2.75" stroke-linecap="round" stroke-linejoin="round"/>
<path d="M78.554 29.3175L69.7092 33.9725C69.4467 34.1097 69.1515 34.1709 68.8563 34.1494C68.5612 34.1278 68.2779 34.0242 68.0379 33.8503C67.798 33.6763 67.611 33.4388 67.4976 33.1642C67.3843 32.8896 67.3492 32.5888 67.3962 32.2954L69.0862 22.4332L61.9313 15.4507C61.7178 15.2433 61.5666 14.9798 61.495 14.6902C61.4234 14.4007 61.4342 14.0967 61.5264 13.8131C61.6185 13.5294 61.7882 13.2775 62.0161 13.0861C62.2439 12.8947 62.5208 12.7715 62.815 12.7305L72.7023 11.2907L77.1247 2.3202C77.2569 2.05302 77.4608 1.82822 77.7133 1.67107C77.9658 1.51392 78.257 1.43066 78.554 1.43066C78.8511 1.43066 79.1422 1.51392 79.3947 1.67107C79.6473 1.82822 79.8511 2.05302 79.9834 2.3202L84.4058 11.2907L94.2931 12.7305C94.5864 12.7729 94.8621 12.8969 95.089 13.0885C95.3158 13.2801 95.4848 13.5316 95.5767 13.8147C95.6687 14.0977 95.6799 14.4009 95.6092 14.69C95.5386 14.9792 95.3887 15.2427 95.1767 15.4507L88.0219 22.4332L89.7078 32.2913C89.7584 32.5852 89.7259 32.8876 89.614 33.1639C89.5021 33.4403 89.3154 33.6796 89.0749 33.8547C88.8344 34.0298 88.5499 34.1336 88.2536 34.1545C87.9574 34.1753 87.6612 34.1122 87.3988 33.9725L78.554 29.3175Z" fill="black" stroke="black" stroke-width="2.75" stroke-linecap="round" stroke-linejoin="round"/>
<path d="M138.002 29.3175L129.157 33.9725C128.895 34.1097 128.6 34.1709 128.305 34.1494C128.009 34.1278 127.726 34.0242 127.486 33.8503C127.246 33.6763 127.059 33.4388 126.946 33.1642C126.833 32.8896 126.797 32.5888 126.844 32.2954L128.534 22.4332L121.38 15.4507C121.166 15.2433 121.015 14.9798 120.943 14.6902C120.872 14.4007 120.882 14.0967 120.975 13.8131C121.067 13.5294 121.236 13.2775 121.464 13.0861C121.692 12.8947 121.969 12.7715 122.263 12.7305L132.151 11.2907L136.573 2.3202C136.705 2.05302 136.909 1.82822 137.162 1.67107C137.414 1.51392 137.705 1.43066 138.002 1.43066C138.299 1.43066 138.59 1.51392 138.843 1.67107C139.095 1.82822 139.299 2.05302 139.432 2.3202L143.854 11.2907L153.741 12.7305C154.035 12.7729 154.31 12.8969 154.537 13.0885C154.764 13.2801 154.933 13.5316 155.025 13.8147C155.117 14.0977 155.128 14.4009 155.057 14.69C154.987 14.9792 154.837 15.2427 154.625 15.4507L147.47 22.4332L149.156 32.2913C149.207 32.5852 149.174 32.8876 149.062 33.1639C148.95 33.4403 148.764 33.6796 148.523 33.8547C148.283 34.0298 147.998 34.1336 147.702 34.1545C147.406 34.1753 147.109 34.1122 146.847 33.9725L138.002 29.3175Z" fill="black" stroke="black" stroke-width="2.75" stroke-linecap="round" stroke-linejoin="round"/>
<path d="M197.451 29.3175L188.606 33.9725C188.344 34.1097 188.048 34.1709 187.753 34.1494C187.458 34.1278 187.175 34.0242 186.935 33.8503C186.695 33.6763 186.508 33.4388 186.395 33.1642C186.281 32.8896 186.246 32.5888 186.293 32.2954L187.983 22.4332L180.828 15.4507C180.615 15.2433 180.464 14.9798 180.392 14.6902C180.32 14.4007 180.331 14.0967 180.423 13.8131C180.516 13.5294 180.685 13.2775 180.913 13.0861C181.141 12.8947 181.418 12.7715 181.712 12.7305L191.599 11.2907L196.022 2.3202C196.154 2.05302 196.358 1.82822 196.61 1.67107C196.863 1.51392 197.154 1.43066 197.451 1.43066C197.748 1.43066 198.039 1.51392 198.292 1.67107C198.544 1.82822 198.748 2.05302 198.88 2.3202L203.303 11.2907L213.19 12.7305C213.483 12.7729 213.759 12.8969 213.986 13.0885C214.213 13.2801 214.382 13.5316 214.474 13.8147C214.566 14.0977 214.577 14.4009 214.506 14.69C214.436 14.9792 214.286 15.2427 214.074 15.4507L206.919 22.4332L208.605 32.2913C208.655 32.5852 208.623 32.8876 208.511 33.1639C208.399 33.4403 208.212 33.6796 207.972 33.8547C207.731 34.0298 207.447 34.1336 207.151 34.1545C206.854 34.1753 206.558 34.1122 206.296 33.9725L197.451 29.3175Z" fill="black" stroke="black" stroke-width="2.75" stroke-linecap="round" stroke-linejoin="round"/>
<path d="M256.899 29.3175L248.054 33.9725C247.791 34.1097 247.496 34.1709 247.201 34.1494C246.906 34.1278 246.623 34.0242 246.383 33.8503C246.143 33.6763 245.956 33.4388 245.842 33.1642C245.729 32.8896 245.694 32.5888 245.741 32.2954L247.431 22.4332L240.276 15.4507C240.062 15.2433 239.911 14.9798 239.84 14.6902C239.768 14.4007 239.779 14.0967 239.871 13.8131C239.963 13.5294 240.133 13.2775 240.361 13.0861C240.589 12.8947 240.865 12.7715 241.16 12.7305L251.047 11.2907L255.469 2.3202C255.602 2.05302 255.806 1.82822 256.058 1.67107C256.311 1.51392 256.602 1.43066 256.899 1.43066C257.196 1.43066 257.487 1.51392 257.739 1.67107C257.992 1.82822 258.196 2.05302 258.328 2.3202L262.75 11.2907L272.638 12.7305C272.931 12.7729 273.207 12.8969 273.434 13.0885C273.661 13.2801 273.83 13.5316 273.921 13.8147C274.013 14.0977 274.025 14.4009 273.954 14.69C273.883 14.9792 273.733 15.2427 273.521 15.4507L266.367 22.4332L268.052 32.2913C268.103 32.5852 268.071 32.8876 267.959 33.1639C267.847 33.4403 267.66 33.6796 267.42 33.8547C267.179 34.0298 266.895 34.1336 266.598 34.1545C266.302 34.1753 266.006 34.1122 265.744 33.9725L256.899 29.3175Z" fill="black" stroke="black" stroke-width="2.75" stroke-linecap="round" stroke-linejoin="round"/>
</svg>
