<svg width="120" height="95" viewBox="0 0 120 95" fill="none" xmlns="http://www.w3.org/2000/svg">
<path d="M30.825 24.1665L15.7109 45.0884L59.6116 94.3912L103.541 45.1025L88.4268 24.1523H30.825V24.1665ZM84.9872 26.6528L79.3355 34.6204L73.6838 42.5314L68.0321 34.5921L62.3804 26.6528H85.0015H84.9872ZM65.2919 35.7364L70.9436 43.5486H48.3225L53.9742 35.7364L59.6259 27.896L65.2776 35.7364H65.2919ZM56.9142 26.6528L51.2625 34.6204L45.6108 42.5314L39.9591 34.5921L34.3074 26.6528H56.9285H56.9142ZM31.5671 27.896L37.2188 35.7223L42.8706 43.5486H20.2352L31.5529 27.896H31.5671ZM20.6348 46.0349H44.5547L56.5146 86.2824L20.6205 46.049L20.6348 46.0349ZM47.4804 46.0349H71.8142L59.6544 86.9746L47.4947 46.0349H47.4804ZM62.78 86.2824L74.7399 46.0349H98.6598L62.78 86.2824ZM76.424 43.5486L82.0757 35.7364L87.7275 27.8818L99.0452 43.5486H76.424Z" fill="black"/>
<path d="M59.5831 11.5085C60.3538 11.5085 61.096 10.8869 61.096 10.124V1.77506C61.096 1.01221 60.3681 0.390625 59.5831 0.390625C58.7982 0.390625 58.0703 1.01221 58.0703 1.77506V10.1099C58.0703 10.8728 58.7982 11.4944 59.5831 11.4944V11.5085Z" fill="black"/>
<path d="M40.8581 14.4182C41.2434 15.0821 42.0997 15.3082 42.7705 14.9268C43.4413 14.5453 43.6697 13.6977 43.2843 13.0337L39.0741 5.81491C38.6887 5.15095 37.8324 4.92492 37.1616 5.30634C36.4909 5.68777 36.2625 6.53538 36.6478 7.19935L40.8581 14.4182Z" fill="black"/>
<path d="M76.481 14.9268C77.1518 15.3082 78.0081 15.0821 78.3934 14.4182L82.6037 7.19935C82.989 6.53538 82.7606 5.68777 82.0899 5.30634C81.4191 4.92492 80.5628 5.15095 80.1774 5.81491L75.9672 13.0337C75.5818 13.6977 75.8102 14.5453 76.481 14.9268Z" fill="black"/>
<path d="M22.6329 23.5871C23.2323 24.0815 24.1171 23.9968 24.6167 23.4176C25.1162 22.8242 25.0305 21.9484 24.4454 21.4539L17.9945 16.0999C17.395 15.6054 16.5102 15.6902 16.0106 16.2694C15.5111 16.8627 15.5968 17.7386 16.1819 18.233L22.6329 23.5871Z" fill="black"/>
</svg>
