<svg width="88" height="71" viewBox="0 0 88 71" fill="none" xmlns="http://www.w3.org/2000/svg">
<path d="M44.0764 54.5436L36.4003 58.6167C36.1725 58.7368 35.9163 58.7904 35.6601 58.7715C35.404 58.7526 35.1581 58.662 34.9499 58.5098C34.7417 58.3576 34.5793 58.1498 34.481 57.9095C34.3826 57.6693 34.3522 57.406 34.393 57.1493L35.8596 48.5198L29.6502 42.4101C29.4649 42.2287 29.3336 41.9981 29.2715 41.7447C29.2094 41.4914 29.2188 41.2254 29.2988 40.9772C29.3788 40.729 29.526 40.5086 29.7238 40.3411C29.9215 40.1736 30.1618 40.0658 30.4171 40.03L38.9979 38.7701L42.8359 30.9209C42.9507 30.6871 43.1276 30.4904 43.3468 30.3529C43.5659 30.2154 43.8186 30.1426 44.0764 30.1426C44.3342 30.1426 44.5869 30.2154 44.806 30.3529C45.0252 30.4904 45.2021 30.6871 45.3169 30.9209L49.1549 38.7701L57.7357 40.03C57.9903 40.0671 58.2296 40.1756 58.4264 40.3432C58.6233 40.5109 58.7699 40.731 58.8497 40.9786C58.9295 41.2263 58.9393 41.4916 58.8779 41.7446C58.8166 41.9976 58.6866 42.2281 58.5026 42.4101L52.2932 48.5198L53.7563 57.1457C53.8002 57.4029 53.772 57.6675 53.6749 57.9093C53.5778 58.1511 53.4157 58.3605 53.2071 58.5137C52.9984 58.6669 52.7514 58.7578 52.4943 58.776C52.2372 58.7942 51.9802 58.739 51.7525 58.6167L44.0764 54.5436Z" fill="black"/>
<path d="M67.3118 28.2687C60.0698 24.0464 51.8517 21.8242 43.5706 21.8242C35.2895 21.8242 27.1029 24.0464 19.8294 28.2687C12.8078 32.3322 6.69929 38.237 2.10219 45.3481C1.8188 45.7926 1.8188 46.364 2.10219 46.8084C6.6678 53.9196 12.8078 59.8243 19.8294 63.8879C27.0714 68.1101 35.2895 70.3323 43.5706 70.3323C51.8517 70.3323 60.0383 68.1101 67.3118 63.8879C74.3334 59.8243 80.4419 53.9196 85.039 46.8084C85.3223 46.364 85.3223 45.7926 85.039 45.3481C80.4734 38.237 74.3334 32.3322 67.3118 28.2687ZM23.293 46.0783C23.293 34.8084 32.3927 25.6338 43.5706 25.6338C54.7485 25.6338 63.8482 34.8084 63.8482 46.0783C63.8482 57.3481 54.7485 66.5228 43.5706 66.5228C32.3927 66.5228 23.293 57.3481 23.293 46.0783ZM4.84156 46.0783C11.5483 36.0147 21.2463 28.9988 32.0778 26.0782C25.2452 30.0782 20.648 37.5703 20.648 46.0783C20.648 54.5862 25.2452 62.0783 32.0778 66.0783C21.2778 63.1259 11.5798 56.11 4.84156 46.0783ZM55.0948 66.0783C61.9275 62.0783 66.5246 54.5862 66.5246 46.0783C66.5246 37.5703 61.9275 30.0782 55.0948 26.0782C65.8949 29.0306 75.5929 36.0465 82.3311 46.0783C75.6244 56.11 65.9264 63.1577 55.0948 66.0783Z" fill="black"/>
<path d="M44.0744 18.0781C44.7986 18.0781 45.3969 17.4749 45.3969 16.7448V1.66537C45.3969 0.935207 44.7986 0.332031 44.0744 0.332031C43.3502 0.332031 42.752 0.935207 42.752 1.66537V16.7448C42.752 17.4749 43.3502 18.0781 44.0744 18.0781Z" fill="black"/>
<path d="M8.90329 30.1097C9.1237 30.1097 9.34411 30.0462 9.56452 29.9192C10.1943 29.5382 10.4147 28.7128 10.0683 28.0779L2.60589 15.0303C2.22805 14.3953 1.40938 14.1731 0.779639 14.5223C0.149898 14.9033 -0.0704983 15.7287 0.275859 16.3636L7.73827 29.4113C7.99016 29.8557 8.43099 30.0779 8.90329 30.0779V30.1097Z" fill="black"/>
<path d="M23.7965 20.4268C23.9539 21.03 24.4892 21.4109 25.0875 21.4109C25.2134 21.4109 25.3079 21.4109 25.4338 21.3792C26.158 21.1887 26.5674 20.4585 26.3785 19.7284L22.5056 5.15689C22.3166 4.42673 21.5924 4.01403 20.8682 4.20451C20.144 4.39499 19.7347 5.12515 19.9236 5.85531L23.7965 20.4268Z" fill="black"/>
<path d="M86.4243 14.5549C85.7946 14.174 84.9759 14.3962 84.5981 15.0629L77.1357 28.1105C76.7578 28.7455 76.9783 29.5709 77.6395 29.9518C77.8599 30.0788 78.0803 30.1423 78.3007 30.1423C78.773 30.1423 79.2138 29.8883 79.4657 29.4756L86.9281 16.428C87.306 15.793 87.0856 14.9676 86.4243 14.5867V14.5549Z" fill="black"/>
<path d="M61.7396 21.3792C61.7396 21.3792 61.96 21.4109 62.0859 21.4109C62.6842 21.4109 63.2195 21.03 63.3769 20.4268L67.2498 5.85531C67.4387 5.12515 67.0294 4.39499 66.3052 4.20451C65.581 4.01403 64.8568 4.42673 64.6679 5.15689L60.795 19.7284C60.606 20.4585 61.0154 21.1887 61.7396 21.3792Z" fill="black"/>
<path d="M47.3489 45.4822C48.8311 45.4822 50.0327 44.2707 50.0327 42.7762C50.0327 41.2818 48.8311 40.0703 47.3489 40.0703C45.8667 40.0703 44.665 41.2818 44.665 42.7762C44.665 44.2707 45.8667 45.4822 47.3489 45.4822Z" fill="white"/>
</svg>
