<svg width="65" height="52" viewBox="0 0 65 52" fill="none" xmlns="http://www.w3.org/2000/svg">
<path d="M22.5839 30.5354C22.7225 28.1336 23.831 26.1706 26.1173 25.1083C28.4036 24.0228 30.6207 24.3693 32.5837 26.009C32.9301 26.2861 33.1149 26.3785 33.4844 26.032C35.6783 24.0921 38.7268 23.9998 41.0131 25.7087C43.2763 27.4177 44.0846 30.4661 42.9992 33.2144C42.4681 34.5076 41.7059 35.6393 40.7822 36.6785C38.5882 39.1034 36.325 41.4128 33.6229 43.2604C33.2303 43.5375 32.9301 43.5837 32.5144 43.2835C29.466 41.1588 26.8332 38.5722 24.5007 35.6623C23.3691 34.2305 22.607 32.5908 22.5839 30.5354Z" fill="black"/>
<path d="M50.065 20.9513C44.7533 17.8798 38.7257 16.2632 32.6519 16.2632C26.5781 16.2632 20.5736 17.8798 15.2388 20.9513C10.0888 23.9074 5.60852 28.2029 2.23676 33.376C2.02891 33.6993 2.02891 34.115 2.23676 34.4384C5.58542 39.6115 10.0888 43.907 15.2388 46.8631C20.5505 49.9346 26.5781 51.5512 32.6519 51.5512C38.7257 51.5512 44.7302 49.9346 50.065 46.8631C55.215 43.907 59.6953 39.6115 63.067 34.4384C63.2749 34.115 63.2749 33.6993 63.067 33.376C59.7184 28.2029 55.215 23.9074 50.065 20.9513ZM17.7792 33.9072C17.7792 25.7087 24.4534 19.0345 32.6519 19.0345C40.8503 19.0345 47.5246 25.7087 47.5246 33.9072C47.5246 42.1056 40.8503 48.7799 32.6519 48.7799C24.4534 48.7799 17.7792 42.1056 17.7792 33.9072ZM4.24596 33.9072C9.16503 26.5863 16.2781 21.4825 24.2225 19.3578C19.211 22.2677 15.8393 27.7179 15.8393 33.9072C15.8393 40.0965 19.211 45.5467 24.2225 48.4566C16.3012 46.3088 9.18813 41.205 4.24596 33.9072ZM41.1044 48.4566C46.1158 45.5467 49.4876 40.0965 49.4876 33.9072C49.4876 27.7179 46.1158 22.2677 41.1044 19.3578C49.0257 21.5056 56.1387 26.6094 61.0809 33.9072C56.1618 41.205 49.0488 46.3319 41.1044 48.4566Z" fill="black"/>
<path d="M33.0216 13.5377C33.5528 13.5377 33.9916 13.0989 33.9916 12.5678V1.59801C33.9916 1.06684 33.5528 0.628052 33.0216 0.628052C32.4905 0.628052 32.0517 1.06684 32.0517 1.59801V12.5678C32.0517 13.0989 32.4905 13.5377 33.0216 13.5377Z" fill="black"/>
<path d="M7.22554 22.2907C7.3872 22.2907 7.54886 22.2445 7.71052 22.1521C8.1724 21.875 8.33406 21.2745 8.08003 20.8127L2.58359 11.344C2.30646 10.8821 1.70601 10.7205 1.24413 10.9745C0.782242 11.2516 0.620582 11.8521 0.874619 12.314L6.34796 21.8057C6.53271 22.129 6.85603 22.2907 7.20244 22.2907H7.22554Z" fill="black"/>
<path d="M18.1499 15.2465C18.2653 15.6853 18.6579 15.9624 19.0967 15.9624C19.1891 15.9624 19.2584 15.9624 19.3508 15.9393C19.8819 15.8007 20.1822 15.2696 20.0436 14.7384L17.203 4.13813C17.0644 3.60697 16.5333 3.30674 16.0021 3.44531C15.4709 3.58387 15.1707 4.11504 15.3093 4.64621L18.1499 15.2465Z" fill="black"/>
<path d="M64.0841 10.9748C63.6222 10.6976 63.0218 10.8593 62.7446 11.3443L57.2713 20.836C56.9942 21.2979 57.1558 21.8983 57.6408 22.1755C57.8025 22.2678 57.9641 22.314 58.1258 22.314C58.4722 22.314 58.7955 22.1293 58.9803 21.8291L64.4536 12.3373C64.7307 11.8754 64.5691 11.275 64.0841 10.9978V10.9748Z" fill="black"/>
<path d="M45.9784 15.9393C45.9784 15.9393 46.14 15.9624 46.2324 15.9624C46.6712 15.9624 47.0638 15.6853 47.1793 15.2465L50.0199 4.64621C50.1584 4.11504 49.8582 3.58387 49.327 3.44531C48.7959 3.30674 48.2647 3.60697 48.1261 4.13813L45.2856 14.7384C45.147 15.2696 45.4472 15.8007 45.9784 15.9393Z" fill="black"/>
<path d="M36.3937 32.9367C37.7201 32.9367 38.7954 31.8614 38.7954 30.5349C38.7954 29.2084 37.7201 28.1331 36.3937 28.1331C35.0672 28.1331 33.9918 29.2084 33.9918 30.5349C33.9918 31.8614 35.0672 32.9367 36.3937 32.9367Z" fill="white"/>
</svg>
