<svg width="85" height="86" viewBox="0 0 85 86" fill="none" xmlns="http://www.w3.org/2000/svg">
<g opacity="0.8">
<path d="M60.0705 65.0388C61.7691 65.0388 63.1462 63.6601 63.1462 61.9593C63.1462 60.2586 61.7691 58.8799 60.0705 58.8799C58.3719 58.8799 56.9949 60.2586 56.9949 61.9593C56.9949 63.6601 58.3719 65.0388 60.0705 65.0388Z" fill="black"/>
<path d="M51.2644 65.0388C52.963 65.0388 54.34 63.6601 54.34 61.9593C54.34 60.2586 52.963 58.8799 51.2644 58.8799C49.5657 58.8799 48.1887 60.2586 48.1887 61.9593C48.1887 63.6601 49.5657 65.0388 51.2644 65.0388Z" fill="black"/>
<path d="M42.455 65.0388C44.1537 65.0388 45.5307 63.6601 45.5307 61.9593C45.5307 60.2586 44.1537 58.8799 42.455 58.8799C40.7564 58.8799 39.3794 60.2586 39.3794 61.9593C39.3794 63.6601 40.7564 65.0388 42.455 65.0388Z" fill="black"/>
<path d="M33.6836 65.0388C35.3822 65.0388 36.7592 63.6601 36.7592 61.9593C36.7592 60.2586 35.3822 58.8799 33.6836 58.8799C31.9849 58.8799 30.6079 60.2586 30.6079 61.9593C30.6079 63.6601 31.9849 65.0388 33.6836 65.0388Z" fill="black"/>
<path d="M24.8776 65.0388C26.5763 65.0388 27.9533 63.6601 27.9533 61.9593C27.9533 60.2586 26.5763 58.8799 24.8776 58.8799C23.179 58.8799 21.802 60.2586 21.802 61.9593C21.802 63.6601 23.179 65.0388 24.8776 65.0388Z" fill="black"/>
<path d="M84.922 44.6716C84.922 43.9367 84.3279 43.3418 83.5939 43.3418H1.32031C0.58635 43.3418 -0.0078125 43.9367 -0.0078125 44.6716C-0.0078125 58.1442 3.27754 68.1175 9.77834 74.2765C13.7976 78.0908 18.1315 79.5956 21.2072 80.1555V84.4947C21.2072 85.2296 21.8013 85.8245 22.5353 85.8245H62.344C63.0779 85.8245 63.6721 85.2296 63.6721 84.4947V80.1205C66.7477 79.5256 71.0816 78.0208 75.1009 74.2415C81.6017 68.0825 84.8871 58.1093 84.8871 44.6366L84.922 44.6716ZM61.0508 83.1999H23.8984V80.5054C24.2828 80.5054 24.5974 80.5054 24.842 80.5054C25.0867 80.5054 25.1915 80.5054 25.2265 80.5054H59.6528C59.6528 80.5054 60.2469 80.5054 61.0508 80.5054V83.1999ZM59.7227 77.8808H25.1566C25.1566 77.8808 17.782 78.1958 11.5958 72.3168C5.86388 66.8577 2.89308 58.0393 2.68338 46.0013H82.2658C82.0561 58.0043 79.0503 66.8577 73.3534 72.3168C67.1671 78.1958 59.8625 77.8808 59.7227 77.8808Z" fill="black"/>
<path d="M22.5686 8.8031H17.2561C16.5221 8.8031 15.928 8.2082 15.928 7.47332C15.928 6.73845 16.5221 6.14355 17.2561 6.14355H22.5686C23.3025 6.14355 23.8967 6.73845 23.8967 7.47332C23.8967 8.2082 23.3025 8.8031 22.5686 8.8031Z" fill="black"/>
<path d="M25.2263 32.7041C17.9915 32.7041 11.4907 37.2883 9.00924 44.0771C8.76458 44.777 9.11409 45.5119 9.8131 45.7918C9.9529 45.8618 10.1276 45.8618 10.2674 45.8618C10.8267 45.8618 11.316 45.5119 11.5257 44.987C13.6227 39.248 19.1449 35.3636 25.2612 35.3636C31.3776 35.3636 36.8648 39.213 38.9618 44.917C39.2065 45.6169 39.9754 45.9668 40.6744 45.7219C41.3734 45.4769 41.7229 44.707 41.4433 44.0072C38.9618 37.2533 32.461 32.7041 25.2612 32.7041H25.2263Z" fill="black"/>
<path d="M25.2256 38.0225C21.0665 38.0225 17.2918 40.1221 15.0899 43.6565C14.7055 44.2864 14.8802 45.0912 15.5093 45.4762C16.1384 45.8611 16.9423 45.6861 17.3268 45.0562C19.0393 42.3267 21.9752 40.682 25.2256 40.682C28.476 40.682 31.4817 42.3617 33.1594 45.1612C33.404 45.5812 33.8584 45.7911 34.2778 45.7911C34.5224 45.7911 34.7671 45.7211 34.9768 45.5812C35.6059 45.1962 35.8156 44.3914 35.4311 43.7615C33.2292 40.1571 29.4196 38.0225 25.2256 38.0225Z" fill="black"/>
<path d="M59.7237 38.0225C55.7393 38.0225 52.0346 39.9821 49.8327 43.3066C49.4133 43.9015 49.588 44.7413 50.1822 45.1612C50.7764 45.5812 51.6152 45.4062 52.0346 44.8113C53.7821 42.2567 56.648 40.717 59.7237 40.717C62.7993 40.717 65.9099 42.3617 67.6225 45.0912C67.8672 45.5112 68.3215 45.7211 68.7409 45.7211C68.9856 45.7211 69.2302 45.6511 69.4399 45.5112C70.069 45.1262 70.2438 44.2864 69.8594 43.6915C67.6575 40.1571 63.8828 38.0575 59.7237 38.0575V38.0225Z" fill="black"/>
<path d="M83.5941 6.1433H39.801V3.48376H83.5941C84.328 3.48376 84.9222 2.88886 84.9222 2.15399C84.9222 1.41912 84.328 0.824219 83.5941 0.824219H38.4729C37.739 0.824219 37.1448 1.41912 37.1448 2.15399V30.849C36.306 30.3241 35.3973 29.8342 34.4886 29.4143V2.15399C34.4886 1.41912 33.8944 0.824219 33.1605 0.824219C32.4265 0.824219 31.8323 1.41912 31.8323 2.15399V28.3995C30.9586 28.1195 30.0848 27.9096 29.1761 27.7346V2.15399C29.1761 1.41912 28.5819 0.824219 27.848 0.824219C27.114 0.824219 26.5198 1.41912 26.5198 2.15399V27.4546C26.0655 27.4546 25.6461 27.3846 25.1917 27.3846C24.7374 27.3846 24.283 27.3846 23.8636 27.4546C23.8636 27.4546 23.8636 27.4196 23.8636 27.3846V2.15399C23.8636 1.41912 23.2695 0.824219 22.5355 0.824219H17.223C16.489 0.824219 15.8949 1.41912 15.8949 2.15399C15.8949 2.88886 16.489 3.48376 17.223 3.48376H21.2074V27.3846C21.2074 27.3846 21.2423 27.6296 21.2773 27.7346C12.7843 29.2393 5.68933 35.5382 3.41754 44.0768C3.24279 44.7766 3.6622 45.5115 4.36121 45.7215C5.06022 45.9314 5.79418 45.4765 6.00389 44.7766C8.34557 36.0981 16.2444 30.0442 25.2267 30.0442C34.209 30.0442 42.1427 36.1331 44.4844 44.8466C44.6592 45.4415 45.1834 45.8265 45.7776 45.8265C45.8824 45.8265 45.9873 45.8265 46.1271 45.7915C46.8261 45.6165 47.2455 44.8816 47.0708 44.1817C47.0009 43.8668 46.896 43.5868 46.7912 43.2719C49.3076 38.4077 54.2706 35.3983 59.7578 35.3983C65.8042 35.3983 71.2565 39.1776 73.4235 44.8466C73.6332 45.3715 74.1225 45.7215 74.6817 45.7215C74.8215 45.7215 74.9962 45.7215 75.136 45.6515C75.8351 45.4065 76.1496 44.6367 75.905 43.9368C73.3885 37.2529 66.8877 32.7737 59.7578 32.7737C54.0259 32.7737 48.7484 35.5732 45.5679 40.2274C45.1485 39.3526 44.6592 38.5127 44.1349 37.7079C47.9445 32.8787 53.6065 30.1142 59.7578 30.1142C68.7401 30.1142 76.6389 36.1681 78.9806 44.8466C79.1553 45.4415 79.6796 45.8265 80.2738 45.8265C80.3786 45.8265 80.5184 45.8265 80.6233 45.7915C81.3223 45.6165 81.8465 44.8466 81.5669 44.1468C72.2352 20.6658 51.6143 28.9594 51.6143 28.9594C50.7755 29.2743 49.9367 29.6593 49.1678 30.0792C49.1678 30.0792 47.4902 31.024 46.896 31.4789C45.2883 32.5987 43.8204 33.9285 42.5272 35.4682C41.7233 34.4884 40.8146 33.6136 39.871 32.8087C39.871 32.8087 39.871 32.7737 39.871 32.7387V8.83784H83.664C84.3979 8.83784 84.9921 8.24294 84.9921 7.50807C84.9921 6.77319 84.3979 6.1783 83.664 6.1783L83.5941 6.1433Z" fill="black"/>
<path d="M62.3796 79.2461H21.802V84.7751H62.3796V79.2461Z" fill="black"/>
</g>
</svg>
