<svg width="65" height="65" viewBox="0 0 65 65" fill="none" xmlns="http://www.w3.org/2000/svg">
<mask id="mask0_407_4549" style="mask-type:alpha" maskUnits="userSpaceOnUse" x="0" y="0" width="65" height="65">
<rect width="65" height="65" fill="#D9D9D9"/>
</mask>
<g mask="url(#mask0_407_4549)">
<path d="M11.752 21.6004C11.752 18.736 12.8847 15.989 14.9011 13.9636C16.9174 11.9382 19.6522 10.8003 22.5037 10.8003H44.0073C46.8589 10.8003 49.5936 11.9382 51.61 13.9636C53.6263 15.989 54.7591 18.736 54.7591 21.6004V43.2006C54.7591 46.065 53.6263 48.812 51.61 50.8375C49.5936 52.8629 46.8589 54.0007 44.0073 54.0007H22.5037C19.6522 54.0007 16.9174 52.8629 14.9011 50.8375C12.8847 48.812 11.752 46.065 11.752 43.2006V21.6004Z" stroke="black" stroke-width="4" stroke-linecap="round" stroke-linejoin="round"/>
<path d="M25.1914 32.4006C25.1914 34.5489 26.041 36.6092 27.5533 38.1282C29.0655 39.6473 31.1166 40.5007 33.2552 40.5007C35.3939 40.5007 37.445 39.6473 38.9572 38.1282C40.4695 36.6092 41.3191 34.5489 41.3191 32.4006C41.3191 30.2523 40.4695 28.192 38.9572 26.673C37.445 25.1539 35.3939 24.3005 33.2552 24.3005C31.1166 24.3005 29.0655 25.1539 27.5533 26.673C26.041 28.192 25.1914 30.2523 25.1914 32.4006Z" stroke="black" stroke-width="4" stroke-linecap="round" stroke-linejoin="round"/>
<path d="M45.3516 20.2503V20.2768" stroke="black" stroke-width="4" stroke-linecap="round" stroke-linejoin="round"/>
</g>
</svg>
