<svg width="177" height="75" viewBox="0 0 177 75" fill="none" xmlns="http://www.w3.org/2000/svg">
<path d="M0 74.1544V21.1855H11.014C15.3861 21.1855 19.1593 21.3265 22.7813 24.0643C26.5513 26.8741 28.5893 31.582 28.5893 36.0081C28.5893 40.716 26.7027 44.2994 22.4819 46.9653C27.1566 49.0734 29.494 54.6929 29.494 59.2599C29.494 69.7283 21.1973 74.1544 10.9399 74.1544H0ZM11.2393 29.9657V42.8931C15.4633 42.8931 17.952 40.2242 17.952 36.218C17.952 32.2117 15.5374 29.7528 11.2393 29.9657ZM11.2393 51.0405V65.3712C15.7627 65.5812 18.406 62.4925 18.406 58.0634C18.406 53.9192 15.6887 50.8966 11.2393 51.0375V51.0405Z" fill="black"/>
<path d="M45.4722 21.1855V55.4696C45.4722 59.4758 44.9474 65.5152 51.0548 65.5152C56.5634 65.5152 56.5634 61.6529 56.6375 57.7156V21.1855H67.8768V59.8237C67.8768 65.4432 67.1975 75 50.9808 75C40.498 75 34.2361 70.433 34.2361 60.5254V21.1855H45.4722Z" fill="black"/>
<path d="M102.571 74.1543V21.1854H111.093C113.053 21.1854 136.588 18.5166 136.588 48.0927C136.588 63.1971 130.326 74.1573 112.599 74.1573H102.567L102.571 74.1543ZM125.349 48.0207C125.349 41.2766 123.085 30.5953 113.81 30.5953V64.7384C122.86 65.1612 125.349 54.6208 125.349 48.0177V48.0207Z" fill="black"/>
<path d="M153.384 21.1855V64.3217H165.148V74.1574H142.145V21.1855H153.384Z" fill="black"/>
<path d="M91.7784 21.293V50.965L78.8843 21.293H91.7784Z" fill="black"/>
<path d="M78.8843 42.0947V74.4326L92.4545 74.1537L78.8843 42.0947Z" fill="black"/>
<path d="M165.145 0.757812H142.196V10.9354H165.145V32.31H176.072V10.9354V0.757812H165.145Z" fill="black"/>
</svg>
