<svg width="94" height="95" viewBox="0 0 94 95" fill="none" xmlns="http://www.w3.org/2000/svg">
<path d="M81.2808 30.459V68.5474C81.2808 70.5677 80.4783 72.5053 79.0497 73.9339C77.6211 75.3625 75.6835 76.1651 73.6632 76.1651H20.3394C18.319 76.1651 16.3814 75.3625 14.9528 73.9339C13.5243 72.5053 12.7217 70.5677 12.7217 68.5474V30.459" fill="#ECEAEB"/>
<path d="M81.2808 30.459V68.5474C81.2808 70.5677 80.4783 72.5053 79.0497 73.9339C77.6211 75.3625 75.6835 76.1651 73.6632 76.1651H20.3394C18.319 76.1651 16.3814 75.3625 14.9528 73.9339C13.5243 72.5053 12.7217 70.5677 12.7217 68.5474V30.459" stroke="black" stroke-width="2.75" stroke-linecap="round" stroke-linejoin="round"/>
<path d="M12.7217 30.4587L47.0013 53.3118L81.2808 30.4587L47.0013 7.60568L12.7217 30.4587Z" fill="#D9D9D9" stroke="black" stroke-width="2.75" stroke-linecap="round" stroke-linejoin="round"/>
<path d="M12.7217 68.547L35.5747 45.6939" stroke="black" stroke-width="2.75" stroke-linecap="round" stroke-linejoin="round"/>
<path d="M58.4277 45.6939L81.2808 68.547" stroke="black" stroke-width="2.75" stroke-linecap="round" stroke-linejoin="round"/>
<path d="M62.6887 44.0779L47.0164 59.5996L31.3442 44.0779C30.3105 43.0719 29.4962 41.8629 28.9527 40.5268C28.4092 39.1908 28.1483 37.7566 28.1862 36.3147C28.2242 34.8729 28.5603 33.4545 29.1734 32.1489C29.7865 30.8433 30.6633 29.6788 31.7485 28.7287C32.8338 27.7786 34.104 27.0635 35.4792 26.6284C36.8544 26.1933 38.3048 26.0477 39.739 26.2007C41.1733 26.3537 42.5603 26.802 43.8128 27.5174C45.0652 28.2327 46.156 29.1997 47.0164 30.3574C47.8806 29.2081 48.9726 28.2496 50.2242 27.5418C51.4758 26.834 52.8601 26.3922 54.2903 26.244C55.7205 26.0957 57.1659 26.2443 58.5361 26.6804C59.9062 27.1165 61.1716 27.8307 62.2531 28.7784C63.3345 29.726 64.2087 30.8866 64.821 32.1876C65.4332 33.4887 65.7703 34.9021 65.8112 36.3394C65.8521 37.7767 65.5959 39.2069 65.0586 40.5406C64.5213 41.8744 63.7145 43.0828 62.6887 44.0904" fill="black"/>
<path d="M62.6887 44.0779L47.0164 59.5996L31.3442 44.0779C30.3105 43.0719 29.4962 41.8629 28.9527 40.5268C28.4092 39.1908 28.1483 37.7566 28.1862 36.3147C28.2242 34.8729 28.5603 33.4545 29.1734 32.1489C29.7865 30.8433 30.6633 29.6788 31.7485 28.7287C32.8338 27.7786 34.104 27.0635 35.4792 26.6284C36.8544 26.1933 38.3048 26.0477 39.739 26.2007C41.1733 26.3537 42.5603 26.802 43.8128 27.5174C45.0652 28.2327 46.156 29.1997 47.0164 30.3574C47.8806 29.2081 48.9726 28.2496 50.2242 27.5418C51.4758 26.834 52.8601 26.3922 54.2903 26.244C55.7205 26.0957 57.1659 26.2443 58.5361 26.6804C59.9062 27.1165 61.1716 27.8307 62.2531 28.7784C63.3345 29.726 64.2087 30.8866 64.821 32.1876C65.4332 33.4887 65.7703 34.9021 65.8112 36.3394C65.8521 37.7767 65.5959 39.2069 65.0586 40.5406C64.5213 41.8744 63.7145 43.0828 62.6887 44.0904" stroke="black" stroke-width="3" stroke-linecap="round" stroke-linejoin="round"/>
</svg>
