<svg width="34" height="23" viewBox="0 0 34 23" fill="none" xmlns="http://www.w3.org/2000/svg">
<path d="M14.862 4.69434C12.1337 4.69434 9.92197 6.70906 9.92197 9.19434C9.92197 11.6797 12.1337 13.6943 14.862 13.6943C17.5904 13.6943 19.802 11.6797 19.802 9.19434C19.802 6.70906 17.5904 4.69434 14.862 4.69434ZM12.392 9.19434C12.392 7.95174 13.4978 6.94434 14.862 6.94434C16.2261 6.94434 17.332 7.95174 17.332 9.19434C17.332 10.4369 16.2261 11.4443 14.862 11.4443C13.4978 11.4443 12.392 10.4369 12.392 9.19434ZM0.865234 3.56934C0.865234 1.70538 2.52403 0.194336 4.57026 0.194336H25.1538C27.1999 0.194336 28.8588 1.70538 28.8588 3.56934V14.8193C28.8588 16.6832 27.1999 18.1943 25.1538 18.1943H4.57026C2.52403 18.1943 0.865234 16.6832 0.865234 14.8193V3.56934ZM4.57026 2.44434C3.88819 2.44434 3.33525 2.94802 3.33525 3.56934V4.69434H4.57026C5.25233 4.69434 5.80527 4.19065 5.80527 3.56934V2.44434H4.57026ZM3.33525 11.4443H4.57026C6.61649 11.4443 8.27529 12.9554 8.27529 14.8193V15.9443H21.4487V14.8193C21.4487 12.9554 23.1076 11.4443 25.1538 11.4443H26.3888V6.94434H25.1538C23.1076 6.94434 21.4487 5.4333 21.4487 3.56934V2.44434H8.27529V3.56934C8.27529 5.4333 6.61649 6.94434 4.57026 6.94434H3.33525V11.4443ZM26.3888 4.69434V3.56934C26.3888 2.94802 25.8358 2.44434 25.1538 2.44434H23.9187V3.56934C23.9187 4.19065 24.4717 4.69434 25.1538 4.69434H26.3888ZM26.3888 13.6943H25.1538C24.4717 13.6943 23.9187 14.198 23.9187 14.8193V15.9443H25.1538C25.8358 15.9443 26.3888 15.4406 26.3888 14.8193V13.6943ZM3.33525 14.8193C3.33525 15.4406 3.88819 15.9443 4.57026 15.9443H5.80527V14.8193C5.80527 14.198 5.25233 13.6943 4.57026 13.6943H3.33525V14.8193ZM4.81952 20.4443C5.67367 21.7894 7.27016 22.6943 9.09866 22.6943H25.9771C30.297 22.6943 33.7988 19.5044 33.7988 15.5693V7.69434C33.7988 6.02874 32.8054 4.57446 31.3288 3.79639V15.5693C31.3288 18.2617 28.9327 20.4443 25.9771 20.4443H4.81952Z" fill="black"/>
</svg>
