<svg width="46" height="42" viewBox="0 0 46 42" fill="none" xmlns="http://www.w3.org/2000/svg">
<path d="M18.6632 41.3679H0.487195V21.7839C0.401862 18.9679 0.785862 16.3225 1.6392 13.8479C2.57786 11.3732 3.85786 9.1972 5.4792 7.31987C7.10053 5.44254 9.02053 3.90653 11.2392 2.71187C13.5432 1.43187 16.0179 0.621203 18.6632 0.279869V8.72787C15.4205 9.8372 13.2019 11.5012 12.0072 13.7199C10.8125 15.8532 10.2152 18.4985 10.2152 21.6559H18.6632V41.3679ZM45.9272 41.3679H27.7512V21.7839C27.6659 18.9679 28.0499 16.3225 28.9032 13.8479C29.8419 11.3732 31.1219 9.1972 32.7432 7.31987C34.3645 5.44254 36.2845 3.90653 38.5032 2.71187C40.8072 1.43187 43.2819 0.621203 45.9272 0.279869V8.72787C42.6845 9.8372 40.4659 11.5012 39.2712 13.7199C38.0765 15.8532 37.4792 18.4985 37.4792 21.6559H45.9272V41.3679Z" fill="black"/>
</svg>
