<svg width="47" height="42" viewBox="0 0 47 42" fill="none" xmlns="http://www.w3.org/2000/svg">
<path d="M27.8241 0.158487L46.0001 0.158489L46.0001 19.7425C46.0854 22.5585 45.7014 25.2038 44.8481 27.6785C43.9094 30.1532 42.6294 32.3292 41.0081 34.2065C39.3868 36.0838 37.4668 37.6198 35.2481 38.8145C32.9441 40.0945 30.4694 40.9052 27.8241 41.2465L27.8241 32.7985C31.0668 31.6892 33.2854 30.0252 34.4801 27.8065C35.6748 25.6732 36.2721 23.0278 36.2721 19.8705L27.8241 19.8705L27.8241 0.158487ZM0.560115 0.158485L18.7361 0.158486L18.7361 19.7425C18.8214 22.5585 18.4374 25.2038 17.5841 27.6785C16.6454 30.1532 15.3654 32.3292 13.7441 34.2065C12.1228 36.0838 10.2028 37.6198 7.98411 38.8145C5.68011 40.0945 3.20544 40.9052 0.560111 41.2465L0.560112 32.7985C3.80278 31.6892 6.02144 30.0252 7.21611 27.8065C8.41078 25.6732 9.00811 23.0278 9.00811 19.8705L0.560113 19.8705L0.560115 0.158485Z" fill="black"/>
</svg>
