<svg width="28" height="29" viewBox="0 0 28 29" fill="none" xmlns="http://www.w3.org/2000/svg">
<path d="M14.2081 4.47266C21.5517 4.47266 27.505 9.89561 27.505 16.5852C27.505 23.2747 21.5517 28.6977 14.2081 28.6977C6.86437 28.6977 0.911133 23.2747 0.911133 16.5852C0.911133 9.89561 6.86437 4.47266 14.2081 4.47266ZM14.2081 6.61016C8.16033 6.61016 3.25765 11.0761 3.25765 16.5852C3.25765 22.0942 8.16033 26.5602 14.2081 26.5602C20.2558 26.5602 25.1585 22.0942 25.1585 16.5852C25.1585 11.0761 20.2558 6.61016 14.2081 6.61016ZM14.2081 8.74766C14.8021 8.74766 15.2929 9.14972 15.3707 9.67138L15.3813 9.81641V16.2289C15.3813 16.8191 14.856 17.2977 14.2081 17.2977C13.6141 17.2977 13.1232 16.8955 13.0454 16.374L13.0348 16.2289V9.81641C13.0348 9.22616 13.5601 8.74766 14.2081 8.74766ZM25.3888 4.63469L25.518 4.71997L27.3301 6.09392C27.8282 6.47153 27.8958 7.14542 27.4814 7.59908C27.1012 8.01494 26.448 8.10141 25.9582 7.82208L25.829 7.7368L24.0168 6.36285C23.5187 5.98524 23.4512 5.31135 23.8656 4.85769C24.2457 4.44183 24.899 4.35536 25.3888 4.63469ZM17.7278 0.910156C18.3758 0.910156 18.9011 1.38866 18.9011 1.97891C18.9011 2.51998 18.4596 2.96713 17.8871 3.0379L17.7278 3.04766H10.6883C10.0403 3.04766 9.51503 2.56916 9.51503 1.97891C9.51503 1.43783 9.95641 0.990683 10.5291 0.919918L10.6883 0.910156H17.7278Z" fill="black"/>
</svg>
