<svg width="28" height="27" viewBox="0 0 28 27" fill="none" xmlns="http://www.w3.org/2000/svg">
<g clip-path="url(#clip0_267_2664)">
<path d="M12.8643 6.70625C12.8643 7.58146 13.4437 8.42083 14.4752 9.0397C15.5066 9.65857 16.9056 10.0063 18.3643 10.0063C19.8229 10.0063 21.2219 9.65857 22.2533 9.0397C23.2848 8.42083 23.8643 7.58146 23.8643 6.70625C23.8643 5.83104 23.2848 4.99167 22.2533 4.3728C21.2219 3.75393 19.8229 3.40625 18.3643 3.40625C16.9056 3.40625 15.5066 3.75393 14.4752 4.3728C13.4437 4.99167 12.8643 5.83104 12.8643 6.70625Z" stroke="black" stroke-width="2" stroke-linecap="round" stroke-linejoin="round"/>
<path d="M12.8643 6.70508V11.1051C12.8643 12.9278 15.3272 14.4051 18.3643 14.4051C21.4014 14.4051 23.8643 12.9278 23.8643 11.1051V6.70508" stroke="black" stroke-width="2" stroke-linecap="round" stroke-linejoin="round"/>
<path d="M12.8643 11.1055V15.5055C12.8643 17.3282 15.3272 18.8055 18.3643 18.8055C21.4014 18.8055 23.8643 17.3282 23.8643 15.5055V11.1055" stroke="black" stroke-width="2" stroke-linecap="round" stroke-linejoin="round"/>
<path d="M12.8643 15.5059V19.9059C12.8643 21.7286 15.3272 23.2059 18.3643 23.2059C21.4014 23.2059 23.8643 21.7286 23.8643 19.9059V15.5059" stroke="black" stroke-width="2" stroke-linecap="round" stroke-linejoin="round"/>
<path d="M8.46348 10.0059H5.71348C5.27587 10.0059 4.85619 10.1797 4.54675 10.4891C4.23732 10.7986 4.06348 11.2183 4.06348 11.6559C4.06348 12.0935 4.23732 12.5132 4.54675 12.8226C4.85619 13.132 5.27587 13.3059 5.71348 13.3059H6.81348C7.25108 13.3059 7.67077 13.4797 7.9802 13.7891C8.28964 14.0986 8.46348 14.5183 8.46348 14.9559C8.46348 15.3935 8.28964 15.8132 7.9802 16.1226C7.67077 16.432 7.25108 16.6059 6.81348 16.6059H4.06348" stroke="black" stroke-width="2" stroke-linecap="round" stroke-linejoin="round"/>
<path d="M6.26367 16.6063V17.7063M6.26367 8.90625V10.0063" stroke="black" stroke-width="2" stroke-linecap="round" stroke-linejoin="round"/>
</g>
<defs>
<clipPath id="clip0_267_2664">
<rect width="26.4" height="26.4" fill="white" transform="translate(0.763672 0.105469)"/>
</clipPath>
</defs>
</svg>
