<svg width="30" height="29" viewBox="0 0 30 29" fill="none" xmlns="http://www.w3.org/2000/svg">
<g clip-path="url(#clip0_77_1590)">
<path d="M5.66748 8.95312H24.4408" stroke="black" stroke-width="1.76" stroke-linecap="round" stroke-linejoin="round"/>
<path d="M12.708 13.6465V20.6865" stroke="black" stroke-width="1.76" stroke-linecap="round" stroke-linejoin="round"/>
<path d="M17.4019 13.6465V20.6865" stroke="black" stroke-width="1.76" stroke-linecap="round" stroke-linejoin="round"/>
<path d="M6.8418 8.95312L8.01513 23.0331C8.01513 23.6555 8.26237 24.2524 8.70245 24.6925C9.14254 25.1326 9.73942 25.3798 10.3618 25.3798H19.7485C20.3708 25.3798 20.9677 25.1326 21.4078 24.6925C21.8479 24.2524 22.0951 23.6555 22.0951 23.0331L23.2685 8.95312" stroke="black" stroke-width="1.76" stroke-linecap="round" stroke-linejoin="round"/>
<path d="M11.5347 8.9531V5.4331C11.5347 5.12191 11.6583 4.82347 11.8783 4.60343C12.0984 4.38338 12.3968 4.25977 12.708 4.25977H17.4013C17.7125 4.25977 18.011 4.38338 18.231 4.60343C18.451 4.82347 18.5747 5.12191 18.5747 5.4331V8.9531" stroke="black" stroke-width="1.76" stroke-linecap="round" stroke-linejoin="round"/>
</g>
<defs>
<clipPath id="clip0_77_1590">
<rect width="28.16" height="28.16" fill="white" transform="translate(0.974609 0.740234)"/>
</clipPath>
</defs>
</svg>
