<svg width="14" height="22" viewBox="0 0 14 22" fill="none" xmlns="http://www.w3.org/2000/svg">
<path d="M1 4.3C1 5.17521 1.57946 6.01458 2.61091 6.63345C3.64236 7.25232 5.04131 7.6 6.5 7.6C7.95869 7.6 9.35764 7.25232 10.3891 6.63345C11.4205 6.01458 12 5.17521 12 4.3C12 3.42479 11.4205 2.58542 10.3891 1.96655C9.35764 1.34768 7.95869 1 6.5 1C5.04131 1 3.64236 1.34768 2.61091 1.96655C1.57946 2.58542 1 3.42479 1 4.3Z" stroke="#0BA6C4" stroke-width="1.65" stroke-linecap="round" stroke-linejoin="round"/>
<path d="M1.46055 4.26792V8.66792C1.46055 10.4906 3.92345 11.9679 6.96055 11.9679C9.99765 11.9679 12.4605 10.4906 12.4605 8.66792V4.26792" stroke="#0BA6C4" stroke-width="1.65" stroke-linecap="round" stroke-linejoin="round"/>
<path d="M1 8.7V13.1C1 14.9227 3.4629 16.4 6.5 16.4C9.5371 16.4 12 14.9227 12 13.1V8.7" stroke="#0BA6C4" stroke-width="1.65" stroke-linecap="round" stroke-linejoin="round"/>
<path d="M1 13.1V17.5C1 19.3227 3.4629 20.8 6.5 20.8C9.5371 20.8 12 19.3227 12 17.5V13.1" stroke="#0BA6C4" stroke-width="1.65" stroke-linecap="round" stroke-linejoin="round"/>
</svg>
