<svg width="28" height="27" viewBox="0 0 28 27" fill="none" xmlns="http://www.w3.org/2000/svg">
<g clip-path="url(#clip0_68_441)">
<path d="M12.916 6.61445C12.916 7.48967 13.4955 8.32904 14.5269 8.94791C15.5584 9.56678 16.9573 9.91445 18.416 9.91445C19.8747 9.91445 21.2737 9.56678 22.3051 8.94791C23.3366 8.32904 23.916 7.48967 23.916 6.61445C23.916 5.73924 23.3366 4.89987 22.3051 4.281C21.2737 3.66213 19.8747 3.31445 18.416 3.31445C16.9573 3.31445 15.5584 3.66213 14.5269 4.281C13.4955 4.89987 12.916 5.73924 12.916 6.61445Z" stroke="#0BA6C4" stroke-width="1.65" stroke-linecap="round" stroke-linejoin="round"/>
<path d="M12.916 6.61328V11.0133C12.916 12.836 15.3789 14.3133 18.416 14.3133C21.4531 14.3133 23.916 12.836 23.916 11.0133V6.61328" stroke="#0BA6C4" stroke-width="1.65" stroke-linecap="round" stroke-linejoin="round"/>
<path d="M12.916 11.0137V15.4137C12.916 17.2364 15.3789 18.7137 18.416 18.7137C21.4531 18.7137 23.916 17.2364 23.916 15.4137V11.0137" stroke="#0BA6C4" stroke-width="1.65" stroke-linecap="round" stroke-linejoin="round"/>
<path d="M12.916 15.4141V19.8141C12.916 21.6368 15.3789 23.1141 18.416 23.1141C21.4531 23.1141 23.916 21.6368 23.916 19.8141V15.4141" stroke="#0BA6C4" stroke-width="1.65" stroke-linecap="round" stroke-linejoin="round"/>
<path d="M8.51523 9.91406H5.76523C5.32763 9.91406 4.90794 10.0879 4.59851 10.3973C4.28907 10.7068 4.11523 11.1265 4.11523 11.5641C4.11523 12.0017 4.28907 12.4214 4.59851 12.7308C4.90794 13.0402 5.32763 13.2141 5.76523 13.2141H6.86523C7.30284 13.2141 7.72253 13.3879 8.03196 13.6973C8.3414 14.0068 8.51523 14.4265 8.51523 14.8641C8.51523 15.3017 8.3414 15.7214 8.03196 16.0308C7.72253 16.3402 7.30284 16.5141 6.86523 16.5141H4.11523" stroke="#0BA6C4" stroke-width="1.65" stroke-linecap="round" stroke-linejoin="round"/>
<path d="M6.31543 16.5145V17.6145M6.31543 8.81445V9.91445" stroke="#0BA6C4" stroke-width="1.65" stroke-linecap="round" stroke-linejoin="round"/>
</g>
<defs>
<clipPath id="clip0_68_441">
<rect width="26.4" height="26.4" fill="white" transform="translate(0.81543 0.0136719)"/>
</clipPath>
</defs>
</svg>
