<svg width="23" height="23" viewBox="0 0 23 23" fill="none" xmlns="http://www.w3.org/2000/svg">
<g clip-path="url(#clip0_278_4709)">
<path d="M4.39453 18.8961H8.0612L17.6862 9.27157C17.927 9.03082 18.1179 8.74501 18.2482 8.43046C18.3785 8.11591 18.4456 7.77878 18.4456 7.43831C18.4456 7.09785 18.3785 6.76072 18.2482 6.44617C18.1179 6.13162 17.927 5.84581 17.6862 5.60506C17.4454 5.36432 17.1596 5.17335 16.8451 5.04305C16.5305 4.91276 16.1933 4.8457 15.8529 4.8457C15.5124 4.8457 15.1752 4.91276 14.8607 5.04305C14.5461 5.17335 14.2603 5.36432 14.0195 5.60506L4.39453 15.2296V18.8961Z" stroke="black" stroke-width="2" stroke-linecap="round" stroke-linejoin="round"/>
<path d="M13.103 6.52148L16.7697 10.188" stroke="black" stroke-width="2" stroke-linecap="round" stroke-linejoin="round"/>
</g>
<defs>
<clipPath id="clip0_278_4709">
<rect width="22" height="21.999" fill="white" transform="translate(0.728027 0.5625)"/>
</clipPath>
</defs>
</svg>
