<svg width="26" height="27" viewBox="0 0 26 27" fill="none" xmlns="http://www.w3.org/2000/svg">
<g clip-path="url(#clip0_68_454)">
<path d="M3.65918 13.3985C3.65918 14.6466 3.90501 15.8825 4.38263 17.0356C4.86025 18.1886 5.56031 19.2363 6.44284 20.1189C7.32536 21.0014 8.37308 21.7015 9.52616 22.1791C10.6792 22.6567 11.9151 22.9025 13.1632 22.9025C14.4113 22.9025 15.6471 22.6567 16.8002 22.1791C17.9533 21.7015 19.001 21.0014 19.8835 20.1189C20.766 19.2363 21.4661 18.1886 21.9437 17.0356C22.4214 15.8825 22.6672 14.6466 22.6672 13.3985C22.6672 12.1504 22.4214 10.9146 21.9437 9.76151C21.4661 8.60843 20.766 7.56072 19.8835 6.67819C19.001 5.79566 17.9533 5.0956 16.8002 4.61798C15.6471 4.14036 14.4113 3.89453 13.1632 3.89453C11.9151 3.89453 10.6792 4.14036 9.52616 4.61798C8.37308 5.0956 7.32536 5.79566 6.44284 6.67819C5.56031 7.56072 4.86025 8.60843 4.38263 9.76151C3.90501 10.9146 3.65918 12.1504 3.65918 13.3985Z" stroke="#0BA6C4" stroke-width="1.584" stroke-linecap="round" stroke-linejoin="round"/>
<path d="M13.1631 13.3984L16.3311 15.5104" stroke="#0BA6C4" stroke-width="1.584" stroke-linecap="round" stroke-linejoin="round"/>
<path d="M13.1631 8.11914V13.3991" stroke="#0BA6C4" stroke-width="1.584" stroke-linecap="round" stroke-linejoin="round"/>
</g>
<defs>
<clipPath id="clip0_68_454">
<rect width="25.344" height="25.344" fill="white" transform="translate(0.491211 0.726562)"/>
</clipPath>
</defs>
</svg>
