<svg width="27" height="27" viewBox="0 0 27 27" fill="none" xmlns="http://www.w3.org/2000/svg">
<g clip-path="url(#clip0_245_2220)">
<path d="M12.5635 6.81953C12.5635 7.69475 13.1429 8.53411 14.1744 9.15298C15.2058 9.77185 16.6048 10.1195 18.0635 10.1195C19.5222 10.1195 20.9211 9.77185 21.9526 9.15298C22.984 8.53411 23.5635 7.69475 23.5635 6.81953C23.5635 5.94432 22.984 5.10495 21.9526 4.48608C20.9211 3.86721 19.5222 3.51953 18.0635 3.51953C16.6048 3.51953 15.2058 3.86721 14.1744 4.48608C13.1429 5.10495 12.5635 5.94432 12.5635 6.81953Z" stroke="#1BA56F" stroke-width="2" stroke-linecap="round" stroke-linejoin="round"/>
<path d="M12.5635 6.81836V11.2184C12.5635 13.0411 15.0264 14.5184 18.0635 14.5184C21.1006 14.5184 23.5635 13.0411 23.5635 11.2184V6.81836" stroke="#1BA56F" stroke-width="2" stroke-linecap="round" stroke-linejoin="round"/>
<path d="M12.5635 11.2188V15.6188C12.5635 17.4415 15.0264 18.9188 18.0635 18.9188C21.1006 18.9188 23.5635 17.4415 23.5635 15.6188V11.2188" stroke="#1BA56F" stroke-width="2" stroke-linecap="round" stroke-linejoin="round"/>
<path d="M12.5635 15.6191V20.0191C12.5635 21.8418 15.0264 23.3191 18.0635 23.3191C21.1006 23.3191 23.5635 21.8418 23.5635 20.0191V15.6191" stroke="#1BA56F" stroke-width="2" stroke-linecap="round" stroke-linejoin="round"/>
<path d="M8.16367 10.1191H5.41367C4.97606 10.1191 4.55638 10.293 4.24695 10.6024C3.93751 10.9118 3.76367 11.3315 3.76367 11.7691C3.76367 12.2067 3.93751 12.6264 4.24695 12.9359C4.55638 13.2453 4.97606 13.4191 5.41367 13.4191H6.51367C6.95128 13.4191 7.37096 13.593 7.6804 13.9024C7.98983 14.2118 8.16367 14.6315 8.16367 15.0691C8.16367 15.5067 7.98983 15.9264 7.6804 16.2359C7.37096 16.5453 6.95128 16.7191 6.51367 16.7191H3.76367" stroke="#1BA56F" stroke-width="2" stroke-linecap="round" stroke-linejoin="round"/>
<path d="M5.96362 16.7195V17.8195M5.96362 9.01953V10.1195" stroke="#1BA56F" stroke-width="2" stroke-linecap="round" stroke-linejoin="round"/>
</g>
<defs>
<clipPath id="clip0_245_2220">
<rect width="26.4" height="26.4" fill="white" transform="translate(0.463379 0.21875)"/>
</clipPath>
</defs>
</svg>
