<svg width="23" height="23" viewBox="0 0 23 23" fill="none" xmlns="http://www.w3.org/2000/svg">
<g clip-path="url(#clip0_245_2187)">
<path d="M3.71899 19.2848H7.38566L17.0107 9.66024C17.2514 9.41949 17.4424 9.13369 17.5727 8.81914C17.703 8.50459 17.7701 8.16745 17.7701 7.82699C17.7701 7.48652 17.703 7.14939 17.5727 6.83484C17.4424 6.52029 17.2514 6.23448 17.0107 5.99373C16.7699 5.75299 16.4841 5.56202 16.1695 5.43173C15.855 5.30144 15.5178 5.23437 15.1773 5.23438C14.8368 5.23438 14.4997 5.30144 14.1851 5.43173C13.8706 5.56202 13.5848 5.75299 13.344 5.99373L3.71899 15.6183V19.2848Z" stroke="black" stroke-width="2" stroke-linecap="round" stroke-linejoin="round"/>
<path d="M12.4272 6.91016L16.0939 10.5767" stroke="black" stroke-width="2" stroke-linecap="round" stroke-linejoin="round"/>
</g>
<defs>
<clipPath id="clip0_245_2187">
<rect width="22" height="21.999" fill="white" transform="translate(0.0522461 0.951172)"/>
</clipPath>
</defs>
</svg>
