<svg width="24" height="24" viewBox="0 0 24 24" fill="none" xmlns="http://www.w3.org/2000/svg">
<g clip-path="url(#clip0_267_3916)">
<path d="M14.9997 7.00045L8.4997 13.5005C8.10188 13.8983 7.87838 14.4378 7.87838 15.0005C7.87838 15.5631 8.10188 16.1026 8.4997 16.5005C8.89753 16.8983 9.43709 17.1218 9.9997 17.1218C10.5623 17.1218 11.1019 16.8983 11.4997 16.5005L17.9997 10.0005C18.7954 9.2048 19.2423 8.12567 19.2423 7.00045C19.2423 5.87523 18.7954 4.7961 17.9997 4.00045C17.2041 3.2048 16.1249 2.75781 14.9997 2.75781C13.8745 2.75781 12.7954 3.2048 11.9997 4.00045L5.4997 10.5005C4.30623 11.6939 3.63574 13.3126 3.63574 15.0005C3.63574 16.6883 4.30623 18.307 5.4997 19.5005C6.69318 20.6939 8.31188 21.3644 9.9997 21.3644C11.6875 21.3644 13.3062 20.6939 14.4997 19.5005L20.9997 13.0005" stroke="#1BA56F" stroke-width="2.75" stroke-linecap="round" stroke-linejoin="round"/>
</g>
<defs>
<clipPath id="clip0_267_3916">
<rect width="24" height="24" fill="white"/>
</clipPath>
</defs>
</svg>
