<svg width="25" height="24" viewBox="0 0 25 24" fill="none" xmlns="http://www.w3.org/2000/svg">
<g clip-path="url(#clip0_267_3699)">
<path d="M3.8418 7.12059C3.8418 6.59547 4.0504 6.09186 4.42173 5.72054C4.79305 5.34923 5.29667 5.14063 5.8218 5.14062H19.6818C20.2069 5.14063 20.7106 5.34923 21.0819 5.72054C21.4532 6.09186 21.6618 6.59547 21.6618 7.12059V17.0204C21.6618 17.5455 21.4532 18.0491 21.0819 18.4204C20.7106 18.7917 20.2069 19.0003 19.6818 19.0003H5.8218C5.29667 19.0003 4.79305 18.7917 4.42173 18.4204C4.0504 18.0491 3.8418 17.5455 3.8418 17.0204V7.12059Z" stroke="black" stroke-width="2" stroke-linecap="round" stroke-linejoin="round"/>
<path d="M3.8418 7.11719L12.7518 13.0571L21.6618 7.11719" stroke="black" stroke-width="2" stroke-linecap="round" stroke-linejoin="round"/>
</g>
<defs>
<clipPath id="clip0_267_3699">
<rect width="23.76" height="23.7595" fill="white" transform="translate(0.87207 0.191406)"/>
</clipPath>
</defs>
</svg>
