<svg width="29" height="30" viewBox="0 0 29 30" fill="none" xmlns="http://www.w3.org/2000/svg">
<g clip-path="url(#clip0_360_2414)">
<path d="M20.7324 4.73036C22.4921 5.78265 23.9559 7.29267 24.9789 9.11094C26.0019 10.9292 26.5487 12.9927 26.5651 15.0971C26.5815 17.2015 26.067 19.2738 25.0724 21.109C24.0779 22.9441 22.6379 24.4784 20.8949 25.56C19.1519 26.6416 17.1664 27.2329 15.1349 27.2755C13.1034 27.3181 11.0964 26.8104 9.31257 25.8028C7.52874 24.7951 6.02994 23.3224 4.96453 21.5304C3.89913 19.7385 3.30407 17.6894 3.23826 15.586L3.23242 15.1945L3.23826 14.803C3.30359 12.7162 3.88989 10.6826 4.94 8.90031C5.99011 7.11806 7.46818 5.64804 9.23013 4.63356C10.9921 3.61908 12.9778 3.09476 14.9936 3.11173C17.0094 3.12869 18.9866 3.68636 20.7324 4.73036ZM19.2239 11.9236C19.023 11.7155 18.7557 11.5905 18.4722 11.5721C18.1887 11.5536 17.9084 11.6429 17.6839 11.8233L17.5743 11.9236L13.7324 15.9014L12.2239 14.3402L12.1143 14.2399C11.8898 14.0597 11.6095 13.9705 11.3261 13.989C11.0426 14.0076 10.7754 14.1325 10.5746 14.3406C10.3737 14.5486 10.2531 14.8253 10.2352 15.1189C10.2173 15.4125 10.3034 15.7027 10.4774 15.9352L10.5743 16.0488L12.9076 18.4655L13.0173 18.5658C13.2219 18.7302 13.4735 18.8194 13.7324 18.8194C13.9914 18.8194 14.243 18.7302 14.4476 18.5658L14.5573 18.4655L19.2239 13.6322L19.3208 13.5186C19.4949 13.2861 19.5811 12.9958 19.5633 12.7021C19.5455 12.4085 19.4248 12.1316 19.2239 11.9236Z" fill="#1BA56F"/>
</g>
<defs>
<clipPath id="clip0_360_2414">
<rect width="28" height="29" fill="white" transform="translate(0.89917 0.695312)"/>
</clipPath>
</defs>
</svg>
