<svg width="27" height="27" viewBox="0 0 27 27" fill="none" xmlns="http://www.w3.org/2000/svg">
<g opacity="0.5" clip-path="url(#clip0_360_2355)">
<path d="M11.2426 23.1923C10.2996 22.9785 9.39406 22.6246 8.55591 22.1426" stroke="black" stroke-width="2" stroke-linecap="round" stroke-linejoin="round"/>
<path d="M15.5759 4.17578C17.7298 4.66769 19.6528 5.87628 21.0301 7.60367C22.4075 9.33106 23.1576 11.4749 23.1576 13.6842C23.1576 15.8935 22.4075 18.0373 21.0301 19.7647C19.6528 21.4921 17.7298 22.7007 15.5759 23.1926" stroke="black" stroke-width="2" stroke-linecap="round" stroke-linejoin="round"/>
<path d="M5.36978 19.2006C4.77882 18.342 4.32999 17.3939 4.04053 16.3926" stroke="black" stroke-width="2" stroke-linecap="round" stroke-linejoin="round"/>
<path d="M3.79346 12.0584C3.96679 11.0292 4.30046 10.0542 4.76846 9.16049L4.95154 8.83008" stroke="black" stroke-width="2" stroke-linecap="round" stroke-linejoin="round"/>
<path d="M7.89185 5.64478C8.90547 4.94701 10.0426 4.44847 11.2426 4.17578" stroke="black" stroke-width="2" stroke-linecap="round" stroke-linejoin="round"/>
<path d="M13.4091 10.4336L11.2424 13.6836H15.5758L13.4091 16.9336" stroke="black" stroke-width="2" stroke-linecap="round" stroke-linejoin="round"/>
</g>
<defs>
<clipPath id="clip0_360_2355">
<rect width="26" height="26" fill="white" transform="translate(0.40918 0.683594)"/>
</clipPath>
</defs>
</svg>
