<svg width="33" height="33" viewBox="0 0 33 33" fill="none" xmlns="http://www.w3.org/2000/svg">
<g clip-path="url(#clip0_267_2286)">
<path d="M27.3228 15.2071C26.989 12.6605 25.7385 10.3228 23.8054 8.63166C21.8724 6.94054 19.3892 6.0119 16.8208 6.01958C14.2524 6.02726 11.7749 6.97073 9.85192 8.67339C7.92899 10.376 6.6925 12.7212 6.37393 15.2697C6.05536 17.8183 6.67654 20.3956 8.12119 22.5192C9.56584 24.6428 11.7349 26.1671 14.2224 26.8068C16.7099 27.4465 19.3452 27.1576 21.6351 25.9944C23.925 24.8311 25.7124 22.8732 26.6628 20.4871M27.3228 27.0871V20.4871H20.7228" stroke="black" stroke-width="3" stroke-linecap="round" stroke-linejoin="round"/>
</g>
<defs>
<clipPath id="clip0_267_2286">
<rect width="31.68" height="31.68" fill="white" transform="translate(0.98877 0.6875)"/>
</clipPath>
</defs>
</svg>
