<svg width="23" height="23" viewBox="0 0 23 23" fill="none" xmlns="http://www.w3.org/2000/svg">
<path d="M6.22278 13.3422L0.951604 13.3422L0.951606 9.66047L6.22278 9.66047H7.02346L6.45729 9.12075L2.72477 5.56253L5.45876 2.95622L9.19128 6.51444L9.75745 7.05416L9.75745 6.29087L9.75745 1.26587H13.6195L13.6195 6.29088V7.05416L14.1857 6.51444L17.9182 2.95622L20.6522 5.56253L16.9197 9.12075L16.3535 9.66047H17.1542L22.4253 9.66047L22.4253 13.3422L17.1542 13.3422H16.3535L16.9197 13.8819L20.6522 17.4401L17.9182 20.0464L14.1857 16.4882L13.6195 15.9485L13.6195 16.7118L13.6195 21.7368L9.75745 21.7368V16.7118V15.9485L9.19128 16.4882L5.45876 20.0464L2.72477 17.4401L6.4573 13.8819L7.02346 13.3422H6.22278Z" fill="#646464" stroke="#646464" stroke-width="0.648002"/>
</svg>
