<svg width="27" height="26" viewBox="0 0 27 26" fill="none" xmlns="http://www.w3.org/2000/svg">
<g clip-path="url(#clip0_267_1659)">
<path d="M13.0242 0.492188C14.0121 0.492245 14.9662 0.838266 15.708 1.46556L15.9036 1.64264L16.7902 2.4951C17.0335 2.72753 17.3512 2.87426 17.692 2.91156L17.8635 2.92133H19.1336C20.1716 2.92128 21.1703 3.30307 21.9248 3.98842C22.6794 4.67378 23.1327 5.61074 23.1917 6.60719L23.1981 6.82946V8.05075C23.1981 8.3805 23.3149 8.7017 23.5258 8.95817L23.6401 9.0803L24.5254 9.93276C25.2591 10.6343 25.687 11.5786 25.7217 12.573C25.7564 13.5675 25.3953 14.5372 24.7121 15.2845L24.5279 15.4725L23.6413 16.325C23.3996 16.5589 23.247 16.8645 23.2082 17.1921L23.1981 17.357V18.5783C23.1981 19.5763 22.8011 20.5366 22.0883 21.2621C21.3755 21.9877 20.4011 22.4235 19.3648 22.4803L19.1336 22.4864H17.8635C17.521 22.4865 17.1886 22.5975 16.9197 22.8015L16.7927 22.9114L15.9062 23.7627C15.1765 24.4682 14.1945 24.8796 13.1603 24.913C12.1261 24.9463 11.1176 24.5991 10.3404 23.9422L10.1448 23.7651L9.25825 22.9126C9.01494 22.6802 8.69722 22.5335 8.35645 22.4962L8.18498 22.4864H6.91484C5.87686 22.4865 4.87818 22.1047 4.12362 21.4193C3.36905 20.734 2.91577 19.797 2.85674 18.8006L2.85039 18.5783V17.357C2.85027 17.0277 2.73484 16.7081 2.52269 16.4496L2.40838 16.3274L1.52309 15.475C0.789303 14.7734 0.361444 13.8291 0.32675 12.8347C0.292056 11.8403 0.653139 10.8706 1.33638 10.1233L1.52055 9.9352L2.40711 9.08274C2.64883 8.84879 2.80143 8.54329 2.84022 8.21563L2.85039 8.05075V6.82946L2.85674 6.60719C2.91345 5.64902 3.33485 4.74441 4.04062 4.06579C4.74639 3.38717 5.68718 2.98197 6.68367 2.92744L6.91484 2.92133H8.18498C8.52743 2.92123 8.85987 2.81023 9.1287 2.60624L9.25571 2.49633L10.1423 1.64509C10.5199 1.27978 10.969 0.98987 11.4636 0.792014C11.9581 0.594157 12.4885 0.492262 13.0242 0.492188ZM17.7199 9.38562C17.4818 9.15667 17.1587 9.02805 16.8219 9.02805C16.4852 9.02805 16.1621 9.15667 15.924 9.38562L11.7414 13.4061L10.0991 11.8282L9.97969 11.7268C9.7244 11.537 9.40355 11.4478 9.0823 11.4772C8.76106 11.5066 8.4635 11.6525 8.25007 11.8853C8.03665 12.118 7.92335 12.4201 7.9332 12.7303C7.94305 13.0404 8.07531 13.3353 8.3031 13.5551L10.8434 15.9977L10.9628 16.0991C11.2072 16.2813 11.5123 16.3716 11.821 16.3529C12.1297 16.3343 12.4207 16.208 12.6394 15.9977L17.7199 11.1125L17.8254 10.9977C18.0149 10.7627 18.1088 10.4693 18.0894 10.1725C18.07 9.87572 17.9386 9.59592 17.7199 9.38562Z" fill="#1BA56F"/>
</g>
<defs>
<clipPath id="clip0_267_1659">
<rect width="30.4834" height="29.311" fill="white" transform="translate(-2.23022 -1.96289)"/>
</clipPath>
</defs>
</svg>
