<svg width="25" height="25" viewBox="0 0 25 25" fill="none" xmlns="http://www.w3.org/2000/svg">
<g clip-path="url(#clip0_262_1594)">
<path d="M14.5881 3.91797V7.87797C14.5881 8.14053 14.6924 8.39234 14.8781 8.578C15.0638 8.76367 15.3156 8.86797 15.5781 8.86797H19.5381" stroke="#1BA56F" stroke-width="1.8" stroke-linecap="round" stroke-linejoin="round"/>
<path d="M17.5582 21.738H7.65822C7.13309 21.738 6.62947 21.5294 6.25815 21.158C5.88683 20.7867 5.67822 20.2831 5.67822 19.758V5.89797C5.67822 5.37284 5.88683 4.86922 6.25815 4.4979C6.62947 4.12658 7.13309 3.91797 7.65822 3.91797H14.5882L19.5382 8.86797V19.758C19.5382 20.2831 19.3296 20.7867 18.9583 21.158C18.587 21.5294 18.0834 21.738 17.5582 21.738Z" stroke="#1BA56F" stroke-width="1.8" stroke-linecap="round" stroke-linejoin="round"/>
<path d="M12.6084 11.8398V17.7798" stroke="#1BA56F" stroke-width="1.8" stroke-linecap="round" stroke-linejoin="round"/>
<path d="M10.1331 14.3148L12.6081 11.8398L15.0831 14.3148" stroke="#1BA56F" stroke-width="1.8" stroke-linecap="round" stroke-linejoin="round"/>
</g>
<defs>
<clipPath id="clip0_262_1594">
<rect width="23.76" height="23.76" fill="white" transform="translate(0.728516 0.951172)"/>
</clipPath>
</defs>
</svg>
