<svg width="28" height="28" viewBox="0 0 28 28" fill="none" xmlns="http://www.w3.org/2000/svg">
<g clip-path="url(#clip0_2177_349)">
<path d="M4.90234 21.6088C4.90234 22.2103 5.14129 22.7872 5.56663 23.2125C5.99196 23.6379 6.56883 23.8768 7.17034 23.8768C7.77185 23.8768 8.34873 23.6379 8.77406 23.2125C9.19939 22.7872 9.43834 22.2103 9.43834 21.6088C9.43834 21.0073 9.19939 20.4304 8.77406 20.0051C8.34873 19.5798 7.77185 19.3408 7.17034 19.3408C6.56883 19.3408 5.99196 19.5798 5.56663 20.0051C5.14129 20.4304 4.90234 21.0073 4.90234 21.6088Z" stroke="#ECEAEB" stroke-width="2.016" stroke-linecap="round" stroke-linejoin="round"/>
<path d="M17.3765 21.6088C17.3765 22.2103 17.6154 22.7872 18.0407 23.2125C18.4661 23.6379 19.043 23.8768 19.6445 23.8768C20.246 23.8768 20.8228 23.6379 21.2482 23.2125C21.6735 22.7872 21.9125 22.2103 21.9125 21.6088C21.9125 21.0073 21.6735 20.4304 21.2482 20.0051C20.8228 19.5798 20.246 19.3408 19.6445 19.3408C19.043 19.3408 18.4661 19.5798 18.0407 20.0051C17.6154 20.4304 17.3765 21.0073 17.3765 21.6088Z" stroke="#ECEAEB" stroke-width="2.016" stroke-linecap="round" stroke-linejoin="round"/>
<path d="M19.6443 19.3409H7.17034V3.46484H4.90234" stroke="#ECEAEB" stroke-width="2.016" stroke-linecap="round" stroke-linejoin="round"/>
<path d="M7.17041 5.73242L23.0464 6.86642L21.9124 14.8044H7.17041" stroke="#ECEAEB" stroke-width="2.016" stroke-linecap="round" stroke-linejoin="round"/>
</g>
<defs>
<clipPath id="clip0_2177_349">
<rect width="27.216" height="27.216" fill="white" transform="translate(0.366211 0.0625)"/>
</clipPath>
</defs>
</svg>
