<svg width="208" height="109" viewBox="0 0 208 109" fill="none" xmlns="http://www.w3.org/2000/svg">
<path d="M72.4678 70.5361L63.2485 82.5681L71.0613 94.4433L86.9991 103.193L98.5619 105.694L118.875 104.131L136.063 94.4433L147.469 82.5681L141.688 75.5366L124.5 63.0364L97.4681 58.6611L72.4678 70.5361Z" fill="#ECEAEB"/>
<path d="M89.4141 78.6018C89.612 75.1707 91.1956 72.3664 94.4618 70.8487C97.728 69.2981 100.895 69.793 103.7 72.1354C104.194 72.5313 104.458 72.6633 104.986 72.1684C108.12 69.3971 112.475 69.2651 115.742 71.7065C118.975 74.1479 120.129 78.5028 118.579 82.4289C117.82 84.2764 116.731 85.893 115.412 87.3776C112.277 90.8418 109.044 94.1409 105.184 96.7803C104.623 97.1762 104.194 97.2422 103.601 96.8133C99.2456 93.778 95.4846 90.083 92.1524 85.926C90.5358 83.8805 89.4471 81.5381 89.4141 78.6018Z" fill="black"/>
<path d="M128.673 64.9102C121.085 60.5223 112.474 58.2129 103.797 58.2129C95.1201 58.2129 86.5422 60.5223 78.9211 64.9102C71.5639 69.1332 65.1635 75.2696 60.3467 82.6598C60.0498 83.1217 60.0498 83.7155 60.3467 84.1774C65.1305 91.5676 71.5639 97.7041 78.9211 101.927C86.5092 106.315 95.1201 108.624 103.797 108.624C112.474 108.624 121.052 106.315 128.673 101.927C136.03 97.7041 142.43 91.5676 147.247 84.1774C147.544 83.7155 147.544 83.1217 147.247 82.6598C142.463 75.2696 136.03 69.1332 128.673 64.9102ZM82.5502 83.4186C82.5502 71.7065 92.0848 62.1719 103.797 62.1719C115.509 62.1719 125.044 71.7065 125.044 83.4186C125.044 95.1307 115.509 104.665 103.797 104.665C92.0848 104.665 82.5502 95.1307 82.5502 83.4186ZM63.217 83.4186C70.2443 72.9602 80.4057 65.669 91.7549 62.6338C84.5957 66.7908 79.7789 74.5768 79.7789 83.4186C79.7789 92.2604 84.5957 100.046 91.7549 104.203C80.4387 101.135 70.2772 93.844 63.217 83.4186ZM115.872 104.203C123.031 100.046 127.848 92.2604 127.848 83.4186C127.848 74.5768 123.031 66.7908 115.872 62.6338C127.188 65.702 137.35 72.9932 144.41 83.4186C137.383 93.844 127.221 101.168 115.872 104.203Z" fill="black"/>
<path d="M104.325 54.3194C105.084 54.3194 105.711 53.6925 105.711 52.9337V37.2626C105.711 36.5038 105.084 35.877 104.325 35.877C103.566 35.877 102.939 36.5038 102.939 37.2626V52.9337C102.939 53.6925 103.566 54.3194 104.325 54.3194Z" fill="black"/>
<path d="M67.4741 66.8237C67.705 66.8237 67.936 66.7577 68.1669 66.6257C68.8268 66.2298 69.0577 65.372 68.6948 64.7122L60.8427 51.1856C60.4468 50.5257 59.5891 50.2948 58.9292 50.6577C58.2694 51.0536 58.0384 51.9114 58.4013 52.5712L66.2204 66.1308C66.4843 66.5927 66.9462 66.8237 67.4411 66.8237H67.4741Z" fill="black"/>
<path d="M83.0797 56.7604C83.2447 57.3873 83.8056 57.7832 84.4324 57.7832C84.5644 57.7832 84.6634 57.7832 84.7953 57.7502C85.5541 57.5522 85.983 56.7934 85.7851 56.0346L81.7271 40.8914C81.5291 40.1326 80.7703 39.7037 80.0115 39.9016C79.2527 40.0996 78.8238 40.8584 79.0218 41.6172L83.0797 56.7604Z" fill="black"/>
<path d="M148.7 50.6579C148.04 50.262 147.182 50.493 146.787 51.1858L138.967 64.7454C138.572 65.4053 138.803 66.263 139.495 66.6589C139.726 66.7909 139.957 66.8569 140.188 66.8569C140.683 66.8569 141.145 66.593 141.409 66.1641L149.228 52.6044C149.624 51.9446 149.393 51.0868 148.7 50.6909V50.6579Z" fill="black"/>
<path d="M122.835 57.7502C122.835 57.7502 123.066 57.7832 123.198 57.7832C123.825 57.7832 124.385 57.3873 124.55 56.7604L128.608 41.6172C128.806 40.8584 128.377 40.0996 127.619 39.9016C126.86 39.7037 126.101 40.1326 125.903 40.8914L121.845 56.0346C121.647 56.7934 122.076 57.5522 122.835 57.7502Z" fill="black"/>
<path d="M109.143 82.0322C111.038 82.0322 112.574 80.496 112.574 78.6011C112.574 76.7061 111.038 75.1699 109.143 75.1699C107.248 75.1699 105.712 76.7061 105.712 78.6011C105.712 80.496 107.248 82.0322 109.143 82.0322Z" fill="white"/>
</svg>
