<svg width="116" height="81" viewBox="0 0 116 81" fill="none" xmlns="http://www.w3.org/2000/svg">
<mask id="mask0_408_4570" style="mask-type:alpha" maskUnits="userSpaceOnUse" x="0" y="0" width="116" height="81">
<rect width="116" height="81" fill="#D9D9D9"/>
</mask>
<g mask="url(#mask0_408_4570)">
<path d="M26.7427 39.5357L17.5234 51.5677L25.3362 63.4429L41.274 72.1931L52.8368 74.6931L73.1497 73.1306L90.3376 63.4429L101.744 51.5677L95.9627 44.5362L78.7748 32.036L51.743 27.6607L26.7427 39.5357Z" fill="#ECEAEB"/>
<path d="M43.6895 47.6015C43.8874 44.1704 45.471 41.3661 48.7372 39.8485C52.0034 38.2979 55.1706 38.7927 57.9749 41.1351C58.4698 41.531 58.7337 41.663 59.2616 41.1681C62.3958 38.3968 66.7507 38.2649 70.0169 40.7063C73.2501 43.1476 74.4048 47.5026 72.8542 51.4286C72.0954 53.2761 71.0067 54.8927 69.687 56.3773C66.5528 59.8415 63.3196 63.1407 59.4595 65.78C58.8987 66.1759 58.4698 66.2419 57.8759 65.813C53.521 62.7778 49.7599 59.0827 46.4278 54.9257C44.8112 52.8802 43.7224 50.5378 43.6895 47.6015Z" fill="black"/>
<path d="M82.9481 33.9098C75.36 29.5219 66.7491 27.2125 58.0723 27.2125C49.3955 27.2125 40.8176 29.5219 33.1965 33.9098C25.8393 38.1328 19.4389 44.2693 14.6221 51.6594C14.3252 52.1213 14.3252 52.7152 14.6221 53.177C19.4059 60.5672 25.8393 66.7037 33.1965 70.9266C40.7846 75.3145 49.3955 77.624 58.0723 77.624C66.7491 77.624 75.327 75.3145 82.9481 70.9266C90.3053 66.7037 96.7057 60.5672 101.522 53.177C101.819 52.7152 101.819 52.1213 101.522 51.6594C96.7387 44.2693 90.3053 38.1328 82.9481 33.9098ZM36.8256 52.4182C36.8256 40.7062 46.3602 31.1715 58.0723 31.1715C69.7844 31.1715 79.319 40.7062 79.319 52.4182C79.319 64.1303 69.7844 73.6649 58.0723 73.6649C46.3602 73.6649 36.8256 64.1303 36.8256 52.4182ZM17.4924 52.4182C24.5196 41.9598 34.6811 34.6687 46.0303 31.6334C38.8711 35.7904 34.0543 43.5764 34.0543 52.4182C34.0543 61.26 38.8711 69.0461 46.0303 73.2031C34.7141 70.1348 24.5526 62.8436 17.4924 52.4182ZM70.1473 73.2031C77.3065 69.0461 82.1233 61.26 82.1233 52.4182C82.1233 43.5764 77.3065 35.7904 70.1473 31.6334C81.4635 34.7016 91.6249 41.9928 98.6852 52.4182C91.6579 62.8436 81.4965 70.1678 70.1473 73.2031Z" fill="black"/>
<path d="M58.6005 23.3193C59.3593 23.3193 59.9862 22.6924 59.9862 21.9336V6.26252C59.9862 5.50371 59.3593 4.87686 58.6005 4.87686C57.8417 4.87686 57.2148 5.50371 57.2148 6.26252V21.9336C57.2148 22.6924 57.8417 23.3193 58.6005 23.3193Z" fill="black"/>
<path d="M21.749 35.8236C21.9799 35.8236 22.2109 35.7576 22.4418 35.6257C23.1017 35.2298 23.3326 34.372 22.9697 33.7121L15.1176 20.1855C14.7217 19.5257 13.864 19.2947 13.2041 19.6576C12.5443 20.0535 12.3133 20.9113 12.6763 21.5712L20.4953 35.1308C20.7592 35.5927 21.2211 35.8236 21.716 35.8236H21.749Z" fill="black"/>
<path d="M37.3551 25.7606C37.5201 26.3875 38.081 26.7834 38.7078 26.7834C38.8398 26.7834 38.9387 26.7834 39.0707 26.7504C39.8295 26.5524 40.2584 25.7936 40.0605 25.0348L36.0025 9.89157C35.8045 9.13276 35.0457 8.70387 34.2869 8.90182C33.5281 9.09977 33.0992 9.85858 33.2971 10.6174L37.3551 25.7606Z" fill="black"/>
<path d="M102.975 19.6576C102.316 19.2617 101.458 19.4926 101.062 20.1855L93.2429 33.7451C92.847 34.4049 93.0779 35.2627 93.7708 35.6586C94.0017 35.7906 94.2326 35.8566 94.4636 35.8566C94.9585 35.8566 95.4203 35.5926 95.6843 35.1637L103.503 21.6041C103.899 20.9443 103.668 20.0865 102.975 19.6906V19.6576Z" fill="black"/>
<path d="M77.1101 26.7504C77.1101 26.7504 77.3411 26.7834 77.4731 26.7834C78.0999 26.7834 78.6608 26.3875 78.8257 25.7606L82.8837 10.6174C83.0817 9.85858 82.6528 9.09977 81.894 8.90182C81.1351 8.70387 80.3763 9.13276 80.1784 9.89157L76.1204 25.0348C75.9224 25.7936 76.3513 26.5524 77.1101 26.7504Z" fill="black"/>
<path d="M63.4175 51.0322C65.3124 51.0322 66.8486 49.496 66.8486 47.601C66.8486 45.7061 65.3124 44.1699 63.4175 44.1699C61.5225 44.1699 59.9863 45.7061 59.9863 47.601C59.9863 49.496 61.5225 51.0322 63.4175 51.0322Z" fill="white"/>
</g>
</svg>
