<svg width="94" height="95" viewBox="0 0 94 95" fill="none" xmlns="http://www.w3.org/2000/svg">
<path d="M81.2803 30.459V68.5474C81.2803 70.5677 80.4778 72.5053 79.0492 73.9339C77.6206 75.3625 75.683 76.1651 73.6627 76.1651H20.3389C18.3185 76.1651 16.381 75.3625 14.9524 73.9339C13.5238 72.5053 12.7212 70.5677 12.7212 68.5474V30.459" fill="#ECEAEB"/>
<path d="M81.2804 30.459V68.5474C81.2804 70.5677 80.4778 72.5053 79.0492 73.9339C77.6206 75.3625 75.683 76.1651 73.6627 76.1651H20.3389C18.3185 76.1651 16.381 75.3625 14.9524 73.9339C13.5238 72.5053 12.7212 70.5677 12.7212 68.5474V30.459" stroke="black" stroke-width="2.75" stroke-linecap="round" stroke-linejoin="round"/>
<path d="M12.7212 30.4585L47.0008 53.3116L81.2803 30.4585L47.0008 7.60547L12.7212 30.4585Z" fill="#D9D9D9" stroke="black" stroke-width="2.75" stroke-linecap="round" stroke-linejoin="round"/>
<path d="M12.7212 68.5464L35.5742 45.6934" stroke="black" stroke-width="2.75" stroke-linecap="round" stroke-linejoin="round"/>
<path d="M58.4272 45.6934L81.2803 68.5464" stroke="black" stroke-width="2.75" stroke-linecap="round" stroke-linejoin="round"/>
<path d="M62.6887 44.0777L47.0164 59.5995L31.3442 44.0777C30.3105 43.0718 29.4962 41.8628 28.9527 40.5267C28.4092 39.1906 28.1483 37.7565 28.1862 36.3146C28.2242 34.8727 28.5603 33.4543 29.1734 32.1488C29.7865 30.8432 30.6633 29.6786 31.7485 28.7285C32.8338 27.7784 34.104 27.0633 35.4792 26.6283C36.8544 26.1932 38.3048 26.0475 39.739 26.2005C41.1733 26.3535 42.5603 26.8018 43.8128 27.5172C45.0652 28.2326 46.156 29.1996 47.0164 30.3572C47.8806 29.208 48.9726 28.2495 50.2242 27.5417C51.4758 26.8339 52.8601 26.3921 54.2903 26.2438C55.7205 26.0956 57.1659 26.2442 58.5361 26.6803C59.9062 27.1164 61.1716 27.8306 62.2531 28.7782C63.3345 29.7259 64.2087 30.8865 64.821 32.1875C65.4332 33.4885 65.7703 34.9019 65.8112 36.3392C65.8521 37.7765 65.5959 39.2068 65.0586 40.5405C64.5213 41.8742 63.7145 43.0827 62.6887 44.0903" fill="black"/>
<path d="M62.6887 44.0777L47.0164 59.5995L31.3442 44.0777C30.3105 43.0718 29.4962 41.8628 28.9527 40.5267C28.4092 39.1906 28.1483 37.7565 28.1862 36.3146C28.2242 34.8727 28.5603 33.4543 29.1734 32.1488C29.7865 30.8432 30.6633 29.6786 31.7485 28.7285C32.8338 27.7784 34.104 27.0633 35.4792 26.6283C36.8544 26.1932 38.3048 26.0475 39.739 26.2005C41.1733 26.3535 42.5603 26.8018 43.8128 27.5172C45.0652 28.2326 46.156 29.1996 47.0164 30.3572C47.8806 29.208 48.9726 28.2495 50.2242 27.5417C51.4758 26.8339 52.8601 26.3921 54.2903 26.2438C55.7205 26.0956 57.1659 26.2442 58.5361 26.6803C59.9062 27.1164 61.1716 27.8306 62.2531 28.7782C63.3345 29.7259 64.2087 30.8865 64.821 32.1875C65.4332 33.4885 65.7703 34.9019 65.8112 36.3392C65.8521 37.7765 65.5959 39.2068 65.0586 40.5405C64.5213 41.8742 63.7145 43.0827 62.6887 44.0903" stroke="black" stroke-width="3" stroke-linecap="round" stroke-linejoin="round"/>
</svg>
