<svg width="29" height="30" viewBox="0 0 29 30" fill="none" xmlns="http://www.w3.org/2000/svg">
<path d="M4.86426 25.1895C4.86426 25.8764 5.13712 26.5352 5.62283 27.0209C6.10853 27.5066 6.76728 27.7794 7.45417 27.7794C8.14106 27.7794 8.79981 27.5066 9.28552 27.0209C9.77122 26.5352 10.0441 25.8764 10.0441 25.1895C10.0441 24.5026 9.77122 23.8439 9.28552 23.3582C8.79981 22.8725 8.14106 22.5996 7.45417 22.5996C6.76728 22.5996 6.10853 22.8725 5.62283 23.3582C5.13712 23.8439 4.86426 24.5026 4.86426 25.1895Z" stroke="black" stroke-width="2" stroke-linecap="round" stroke-linejoin="round"/>
<path d="M19.1084 25.1895C19.1084 25.8764 19.3813 26.5352 19.867 27.0209C20.3527 27.5066 21.0114 27.7794 21.6983 27.7794C22.3852 27.7794 23.044 27.5066 23.5297 27.0209C24.0154 26.5352 24.2882 25.8764 24.2882 25.1895C24.2882 24.5026 24.0154 23.8439 23.5297 23.3582C23.044 22.8725 22.3852 22.5996 21.6983 22.5996C21.0114 22.5996 20.3527 22.8725 19.867 23.3582C19.3813 23.8439 19.1084 24.5026 19.1084 25.1895Z" stroke="black" stroke-width="2" stroke-linecap="round" stroke-linejoin="round"/>
<path d="M21.6987 22.6001H7.45417V4.4707H4.86426" stroke="black" stroke-width="2" stroke-linecap="round" stroke-linejoin="round"/>
<path d="M7.4541 7.06055L25.5835 8.3555L24.2885 17.4202H7.4541" stroke="black" stroke-width="2" stroke-linecap="round" stroke-linejoin="round"/>
</svg>
