<svg width="17" height="17" viewBox="0 0 17 17" fill="none" xmlns="http://www.w3.org/2000/svg">
<path d="M15.3958 11.1436C15.3958 13.5703 13.9492 15.0169 11.5225 15.0169H10.7292C10.3625 15.0169 10.0625 14.7169 10.0625 14.3503V10.5036C10.0625 10.3236 10.2092 10.1703 10.3892 10.1703L11.5625 10.1503C11.6558 10.1436 11.7358 10.0769 11.7558 9.9836L11.9892 8.71027C12.0092 8.59027 11.9158 8.47693 11.7892 8.47693L10.3692 8.49693C10.1825 8.49693 10.0358 8.35027 10.0292 8.17027L10.0025 6.53693C10.0025 6.43026 10.0892 6.33693 10.2025 6.33693L11.8025 6.31026C11.9158 6.31026 12.0025 6.2236 12.0025 6.11027L11.9758 4.51025C11.9758 4.39692 11.8892 4.31026 11.7758 4.31026L9.97583 4.33693C8.86916 4.35693 7.98918 5.26359 8.00918 6.37026L8.0425 8.20359C8.04917 8.39026 7.90251 8.53693 7.71584 8.5436L6.91583 8.55693C6.8025 8.55693 6.71584 8.64358 6.71584 8.75692L6.73584 10.0236C6.73584 10.1369 6.8225 10.2236 6.93583 10.2236L7.73584 10.2103C7.92251 10.2103 8.06916 10.3569 8.07583 10.5369L8.13582 14.3369C8.14249 14.7103 7.84249 15.0169 7.46916 15.0169H5.93583C3.50917 15.0169 2.0625 13.5703 2.0625 11.1369V5.55693C2.0625 3.13026 3.50917 1.68359 5.93583 1.68359H11.5225C13.9492 1.68359 15.3958 3.13026 15.3958 5.55693V11.1436Z" fill="black"/>
</svg>
