<svg width="17" height="17" viewBox="0 0 17 17" fill="none" xmlns="http://www.w3.org/2000/svg">
<path d="M11.5225 1.68359H5.93583C3.50917 1.68359 2.0625 3.13026 2.0625 5.55693V11.1369C2.0625 13.5703 3.50917 15.0169 5.93583 15.0169H11.5158C13.9425 15.0169 15.3892 13.5703 15.3892 11.1436V5.55693C15.3958 3.13026 13.9492 1.68359 11.5225 1.68359ZM8.72917 10.9369C7.3025 10.9369 6.1425 9.77693 6.1425 8.35026C6.1425 6.92359 7.3025 5.76359 8.72917 5.76359C10.1558 5.76359 11.3158 6.92359 11.3158 8.35026C11.3158 9.77693 10.1558 10.9369 8.72917 10.9369ZM12.6758 4.93693C12.6425 5.01693 12.5958 5.09026 12.5358 5.15693C12.4692 5.21693 12.3958 5.26359 12.3158 5.29693C12.2358 5.33026 12.1492 5.35026 12.0625 5.35026C11.8825 5.35026 11.7158 5.28359 11.5892 5.15693C11.5292 5.09026 11.4825 5.01693 11.4492 4.93693C11.4158 4.85693 11.3958 4.77026 11.3958 4.68359C11.3958 4.59693 11.4158 4.51026 11.4492 4.43026C11.4825 4.34359 11.5292 4.27693 11.5892 4.21026C11.7425 4.05693 11.9758 3.98359 12.1892 4.03026C12.2358 4.03693 12.2758 4.05026 12.3158 4.07026C12.3558 4.08359 12.3958 4.10359 12.4358 4.13026C12.4692 4.15026 12.5025 4.18359 12.5358 4.21026C12.5958 4.27693 12.6425 4.34359 12.6758 4.43026C12.7092 4.51026 12.7292 4.59693 12.7292 4.68359C12.7292 4.77026 12.7092 4.85693 12.6758 4.93693Z" fill="black"/>
</svg>
