<svg width="21" height="21" viewBox="0 0 21 21" fill="none" xmlns="http://www.w3.org/2000/svg">
<g clip-path="url(#clip0_1819_66)">
<path d="M3.16455 6.50156C3.16455 6.06396 3.33839 5.64427 3.64782 5.33484C3.95726 5.0254 4.37694 4.85156 4.81455 4.85156H16.3646C16.8022 4.85156 17.2218 5.0254 17.5313 5.33484C17.8407 5.64427 18.0146 6.06396 18.0146 6.50156V14.7516C18.0146 15.1892 17.8407 15.6089 17.5313 15.9183C17.2218 16.2277 16.8022 16.4016 16.3646 16.4016H4.81455C4.37694 16.4016 3.95726 16.2277 3.64782 15.9183C3.33839 15.6089 3.16455 15.1892 3.16455 14.7516V6.50156Z" stroke="black" stroke-width="2" stroke-linecap="round" stroke-linejoin="round"/>
<path d="M3.16455 6.5L10.5896 11.45L18.0146 6.5" stroke="black" stroke-width="2" stroke-linecap="round" stroke-linejoin="round"/>
</g>
<defs>
<clipPath id="clip0_1819_66">
<rect width="19.8" height="19.8" fill="white" transform="translate(0.689453 0.726562)"/>
</clipPath>
</defs>
</svg>
