<svg width="23" height="23" viewBox="0 0 23 23" fill="none" xmlns="http://www.w3.org/2000/svg">
<g clip-path="url(#clip0_407_803)">
<path d="M3.11523 6.54427C3.11523 6.05804 3.30839 5.59173 3.65221 5.24791C3.99602 4.90409 4.46234 4.71094 4.94857 4.71094H17.7819C18.2681 4.71094 18.7344 4.90409 19.0783 5.24791C19.4221 5.59173 19.6152 6.05804 19.6152 6.54427V15.7109C19.6152 16.1972 19.4221 16.6635 19.0783 17.0073C18.7344 17.3511 18.2681 17.5443 17.7819 17.5443H4.94857C4.46234 17.5443 3.99602 17.3511 3.65221 17.0073C3.30839 16.6635 3.11523 16.1972 3.11523 15.7109V6.54427Z" stroke="white" stroke-width="1.375" stroke-linecap="round" stroke-linejoin="round"/>
<path d="M3.11523 6.54688L11.3652 12.0469L19.6152 6.54688" stroke="white" stroke-width="1.375" stroke-linecap="round" stroke-linejoin="round"/>
</g>
<defs>
<clipPath id="clip0_407_803">
<rect width="22" height="22" fill="white" transform="translate(0.365234 0.128906)"/>
</clipPath>
</defs>
</svg>
