<svg width="17" height="17" viewBox="0 0 17 17" fill="none" xmlns="http://www.w3.org/2000/svg">
<g clip-path="url(#clip0_407_847)">
<path d="M16.0835 5.2056L14.2148 7.07435C13.8373 11.4506 10.1466 14.8518 5.72977 14.8518C4.82227 14.8518 4.07414 14.7081 3.50602 14.4243C3.04789 14.195 2.86039 13.9493 2.81352 13.8793C2.77172 13.8167 2.74463 13.7453 2.73427 13.6707C2.72391 13.5961 2.73054 13.5201 2.75368 13.4484C2.77682 13.3767 2.81586 13.3112 2.86789 13.2567C2.91992 13.2022 2.98359 13.1601 3.05414 13.1337C3.07039 13.1275 4.56914 12.5518 5.52102 11.4562C4.99313 11.0222 4.53232 10.5125 4.15352 9.94372C3.37852 8.7931 2.51102 6.79435 2.77852 3.80747C2.787 3.71256 2.82242 3.62205 2.88061 3.5466C2.93881 3.47115 3.01735 3.41389 3.10699 3.38158C3.19663 3.34927 3.29364 3.34325 3.38659 3.36422C3.47954 3.3852 3.56456 3.4323 3.63164 3.49997C3.65352 3.52185 5.71164 5.56872 8.22789 6.23247V5.85185C8.22693 5.45272 8.30585 5.05743 8.45998 4.68926C8.61412 4.3211 8.84036 3.98749 9.12539 3.7081C9.4022 3.43167 9.73158 3.2135 10.0941 3.06644C10.4566 2.91937 10.8449 2.84641 11.236 2.85185C11.7607 2.85702 12.2752 2.99788 12.7294 3.26072C13.1835 3.52357 13.562 3.89946 13.8279 4.35185H15.7298C15.8287 4.35177 15.9255 4.38105 16.0078 4.43599C16.0901 4.49092 16.1542 4.56904 16.1921 4.66045C16.23 4.75186 16.2399 4.85246 16.2205 4.9495C16.2012 5.04654 16.1535 5.13567 16.0835 5.2056Z" fill="black"/>
</g>
<defs>
<clipPath id="clip0_407_847">
<rect width="16" height="16" fill="white" transform="translate(0.729492 0.351562)"/>
</clipPath>
</defs>
</svg>
