<svg width="20" height="21" viewBox="0 0 20 21" fill="none" xmlns="http://www.w3.org/2000/svg">
<g clip-path="url(#clip0_1819_61)">
<path d="M2.74951 17.6665L4.08051 14.6012C3.06223 13.1557 2.60646 11.3883 2.79875 9.63061C2.99105 7.87295 3.81817 6.24587 5.12491 5.05473C6.43165 3.86359 8.12816 3.19027 9.89608 3.16114C11.664 3.13201 13.3818 3.74906 14.727 4.8965C16.0723 6.04394 16.9526 7.64288 17.2027 9.39326C17.4528 11.1436 17.0555 12.9251 16.0854 14.4034C15.1153 15.8817 13.6391 16.9551 11.9337 17.4222C10.2284 17.8893 8.4112 17.7181 6.82318 16.9405L2.74951 17.6665Z" stroke="#121212" stroke-width="2" stroke-linecap="round" stroke-linejoin="round"/>
<path d="M7.58984 8.79203C7.58984 8.899 7.63234 9.00159 7.70798 9.07723C7.78362 9.15287 7.88621 9.19536 7.99318 9.19536C8.10015 9.19536 8.20274 9.15287 8.27838 9.07723C8.35402 9.00159 8.39651 8.899 8.39651 8.79203V7.98536C8.39651 7.87839 8.35402 7.7758 8.27838 7.70016C8.20274 7.62452 8.10015 7.58203 7.99318 7.58203C7.88621 7.58203 7.78362 7.62452 7.70798 7.70016C7.63234 7.7758 7.58984 7.87839 7.58984 7.98536V8.79203C7.58984 9.86174 8.01478 10.8876 8.77118 11.644C9.52758 12.4004 10.5535 12.8254 11.6232 12.8254H12.4298C12.5368 12.8254 12.6394 12.7829 12.715 12.7072C12.7907 12.6316 12.8332 12.529 12.8332 12.422C12.8332 12.3151 12.7907 12.2125 12.715 12.1368C12.6394 12.0612 12.5368 12.0187 12.4298 12.0187H11.6232C11.5162 12.0187 11.4136 12.0612 11.338 12.1368C11.2623 12.2125 11.2198 12.3151 11.2198 12.422C11.2198 12.529 11.2623 12.6316 11.338 12.7072C11.4136 12.7829 11.5162 12.8254 11.6232 12.8254" fill="black"/>
<path d="M7.58984 8.79203C7.58984 8.899 7.63234 9.00159 7.70798 9.07723C7.78362 9.15287 7.88621 9.19536 7.99318 9.19536C8.10015 9.19536 8.20274 9.15287 8.27838 9.07723C8.35402 9.00159 8.39651 8.899 8.39651 8.79203V7.98536C8.39651 7.87839 8.35402 7.7758 8.27838 7.70016C8.20274 7.62452 8.10015 7.58203 7.99318 7.58203C7.88621 7.58203 7.78362 7.62452 7.70798 7.70016C7.63234 7.7758 7.58984 7.87839 7.58984 7.98536V8.79203ZM7.58984 8.79203C7.58984 9.86174 8.01478 10.8876 8.77118 11.644C9.52758 12.4004 10.5535 12.8254 11.6232 12.8254M11.6232 12.8254H12.4298C12.5368 12.8254 12.6394 12.7829 12.715 12.7072C12.7907 12.6316 12.8332 12.529 12.8332 12.422C12.8332 12.3151 12.7907 12.2125 12.715 12.1368C12.6394 12.0612 12.5368 12.0187 12.4298 12.0187H11.6232C11.5162 12.0187 11.4136 12.0612 11.338 12.1368C11.2623 12.2125 11.2198 12.3151 11.2198 12.422C11.2198 12.529 11.2623 12.6316 11.338 12.7072C11.4136 12.7829 11.5162 12.8254 11.6232 12.8254Z" stroke="#121212" stroke-width="2" stroke-linecap="round" stroke-linejoin="round"/>
</g>
<defs>
<clipPath id="clip0_1819_61">
<rect width="19.36" height="19.36" fill="white" transform="translate(0.32959 0.726562)"/>
</clipPath>
</defs>
</svg>
